<svg width="13" height="20" viewBox="0 0 13 20" fill="none" xmlns="http://www.w3.org/2000/svg"><path d="M9.42118 0C10.9184 0 12.1429 1.22775 12.1429 2.72796V16.5578C12.1429 18.058 10.9184 19.2857 9.42118 19.2857H2.72167C1.22449 19.2857 0 18.058 0 16.5578V2.72796C0 1.22775 1.22449 0 2.72167 0H9.42118ZM11.428 16.071H0.714L0.714286 16.5578C0.714286 17.6136 1.53899 18.4885 2.57265 18.5659L2.72167 18.5714H9.42118C10.5234 18.5714 11.4286 17.6639 11.4286 16.5578L11.428 16.071ZM6.07143 16.4286C6.46593 16.4286 6.78571 16.7484 6.78571 17.1429C6.78571 17.5373 6.46593 17.8571 6.07143 17.8571C5.67695 17.8571 5.35714 17.5373 5.35714 17.1429C5.35714 16.7484 5.67695 16.4286 6.07143 16.4286ZM11.428 3.214H0.714V15.357H11.428V3.214ZM9.42118 0.714286H2.72167C1.69609 0.714286 0.841184 1.49993 0.727191 2.50021H11.4157C11.3017 1.49993 10.4468 0.714286 9.42118 0.714286Z" fill="black"/></svg>
