<svg width="44" height="28" viewBox="0 0 44 28" fill="none" xmlns="http://www.w3.org/2000/svg">
<path d="M2.34667 0H41.6533C42.9499 0 44 1.06412 44 2.37792V25.6221C44 26.9359 42.9499 28 41.6533 28H2.34667C1.05013 28 0 26.9359 0 25.6221V2.37792C0 1.06412 1.05013 0 2.34667 0Z" fill="#2557D6"/>
<path d="M0 13.0606H2.09791L2.56993 11.873H3.63054L4.10257 13.0606H8.23428V12.1531L8.60141 13.0666H10.7459L11.1131 12.1409V13.0606H21.3812L21.3753 11.1117H21.5735C21.7133 11.1178 21.7541 11.1299 21.7541 11.3675V13.0606H27.063V12.6038C27.4884 12.8413 28.1585 13.0606 29.0327 13.0606H31.2646L31.7425 11.873H32.8089L33.2751 13.0606H37.5816V11.9339L38.2343 13.0606H41.6842V5.59998H38.2693V6.48306L37.7914 5.59998H34.2891V6.48306L33.852 5.59998H29.1201C28.3275 5.59998 27.6341 5.71569 27.0688 6.03848V5.59998H23.8054V6.03848C23.4499 5.7096 22.9604 5.59998 22.4184 5.59998H10.4837L9.68533 7.5245L8.86365 5.59998H5.1049V6.48306L4.69115 5.59998H1.48602L0 9.14451V13.0606ZM13.2518 11.9826H11.993L11.9872 7.79247L10.204 11.9826H9.12589L7.34267 7.79247V11.9887H4.84266L4.37064 10.7889H1.81236L1.3345 11.9826H0L2.2028 6.63532H4.02681L6.11889 11.7024V6.63532H8.12356L9.73195 10.2651L11.2063 6.63532H13.2518V11.9826ZM3.95105 9.68045L3.11189 7.54886L2.27856 9.68045H3.95105ZM18.2634 11.9826H14.1609V6.63532H18.2634V7.74984H15.3905V8.7121H18.1993V9.80835H15.3905V10.8741H18.2634V11.9826ZM24.0502 8.07262C24.0502 8.92526 23.5024 9.36376 23.1819 9.49775C23.4499 9.60128 23.683 9.79008 23.7879 9.94843C23.9627 10.2164 23.9919 10.4539 23.9919 10.929V11.9826H22.7506L22.7448 11.3066C22.7448 10.9838 22.7739 10.5209 22.5525 10.2651C22.3718 10.0763 22.0979 10.0337 21.655 10.0337H20.338V11.9765H19.1142V6.62923H21.9406C22.57 6.62923 23.0303 6.6475 23.4266 6.88502C23.8171 7.12863 24.0502 7.47578 24.0502 8.07262ZM22.4942 8.87045C22.3252 8.98007 22.1271 8.98007 21.8881 8.98007H20.3963V7.79247H21.9115C22.1271 7.79247 22.3485 7.80465 22.4942 7.88992C22.6515 7.96909 22.7506 8.13353 22.7506 8.36496C22.7506 8.59639 22.6574 8.78518 22.4942 8.87045ZM26.0199 11.9826H24.7669V6.63532H26.0199V11.9826ZM40.5712 11.9826H38.8287L36.4977 7.96909V11.9826H33.9977L33.5199 10.7889H30.9674L30.5012 11.9826H29.0618C28.4674 11.9826 27.7098 11.8425 27.2786 11.3918C26.8474 10.935 26.6201 10.3199 26.6201 9.35158C26.6201 8.55985 26.7541 7.8351 27.2844 7.26262C27.6807 6.8363 28.3042 6.64141 29.1492 6.64141H30.338V7.78638H29.1725C28.7238 7.78638 28.4732 7.85337 28.2285 8.10308C28.0187 8.32842 27.873 8.75473 27.873 9.31504C27.873 9.88752 27.9837 10.3017 28.211 10.5696C28.3975 10.7828 28.7413 10.8437 29.0676 10.8437H29.6213L31.352 6.63532H33.1935L35.2739 11.6963V6.63532H37.1446L39.3066 10.3626V6.63532H40.5653V11.9826H40.5712ZM33.1061 9.68045L32.2553 7.54886L31.4103 9.68045H33.1061Z" fill="white"/>
<path d="M43.9939 20.6657C43.6953 21.1221 43.1097 21.3473 42.3192 21.3473H39.9358V20.2032H42.3133C42.5475 20.2032 42.7115 20.1728 42.8111 20.0693C42.8989 19.9842 42.9575 19.8685 42.9575 19.7225C42.9575 19.5643 42.8989 19.4426 42.8052 19.3695C42.7174 19.2904 42.5827 19.2539 42.3719 19.2539C41.2124 19.2113 39.766 19.2904 39.766 17.5987C39.766 16.8259 40.2403 16.0044 41.5403 16.0044H43.9998V14.9394H41.716C41.025 14.9394 40.5272 15.1098 40.17 15.3776V14.9394H36.7912C36.2524 14.9394 35.6141 15.0794 35.3155 15.3776V14.9394H29.2721V15.3776C28.792 15.0185 27.9838 14.9394 27.6091 14.9394H23.627V15.3776C23.2464 14.9942 22.4031 14.9394 21.8878 14.9394H17.4314L16.4125 16.0774L15.458 14.9333H8.7998V22.3939H15.3292L16.3774 21.2316L17.367 22.3939L21.3901 22.4V20.6474H21.7883C22.3211 20.6535 22.9536 20.6353 23.5099 20.3858V22.4H26.8302V20.4527H26.9883C27.1933 20.4527 27.2108 20.4588 27.2108 20.6718V22.3939H37.2948C37.9331 22.3939 38.6065 22.2235 38.9754 21.9193V22.3939H42.1786C42.8462 22.3939 43.4962 22.2966 43.9881 22.0471V20.6657H43.9939ZM23.9959 17.7934C23.9959 19.2783 22.9243 19.5825 21.8468 19.5825H20.3067V21.3777H17.9058L16.3832 19.6069L14.8021 21.3777H9.91243V16.0287H14.8783L16.3949 17.7813L17.9643 16.0287H21.9112C22.895 16.0348 23.9959 16.3147 23.9959 17.7934ZM14.1755 20.2519H11.1422V19.187H13.8535V18.0977H11.1422V17.1241H14.24L15.5927 18.6819L14.1755 20.2519ZM19.0711 20.8665L17.1738 18.688L19.0711 16.5764V20.8665ZM21.8702 18.4872H20.2774V17.1241H21.8878C22.3329 17.1241 22.6432 17.3127 22.6432 17.7813C22.6432 18.2438 22.3446 18.4872 21.8702 18.4872ZM30.2325 16.0348H34.3551V17.1423H31.4623V18.116H34.2848V19.2052H31.4623V20.2702L34.3551 20.2762V21.3838H30.2325V16.0348ZM28.6456 18.8949C28.9208 18.9983 29.1433 19.187 29.2487 19.3452C29.4244 19.6069 29.4478 19.8503 29.4537 20.3188V21.3777H28.2122V20.7083C28.2122 20.3858 28.2415 19.9111 28.0131 19.6616C27.8316 19.473 27.5564 19.4243 27.1054 19.4243H25.7879V21.3777H24.5523V16.0287H27.4041C28.0307 16.0287 28.4816 16.0591 28.8915 16.2782C29.2838 16.5216 29.5239 16.8563 29.5239 17.4648C29.5239 18.3229 28.9735 18.761 28.6456 18.8949ZM27.9487 18.2194C27.7847 18.3229 27.5798 18.3289 27.3397 18.3289H25.8406V17.1301H27.3631C27.5856 17.1301 27.8023 17.1362 27.9546 17.2275C28.1127 17.3127 28.2122 17.477 28.2122 17.7082C28.2122 17.9395 28.1068 18.116 27.9487 18.2194ZM39.0925 18.5602C39.3326 18.8158 39.4615 19.1444 39.4615 19.6921C39.4615 20.8422 38.7646 21.3777 37.5231 21.3777H35.1164V20.2336H37.5114C37.7457 20.2336 37.9096 20.2032 38.015 20.0998C38.1029 20.0146 38.1614 19.899 38.1614 19.7529C38.1614 19.5947 38.097 19.473 38.0092 19.4C37.9155 19.3209 37.7867 19.2843 37.57 19.2843C36.4164 19.2417 34.97 19.3209 34.97 17.6291C34.97 16.8563 35.4384 16.0348 36.7326 16.0348H39.2097V17.1727H36.9434C36.7209 17.1727 36.5745 17.1788 36.4515 17.2701C36.3168 17.3553 36.2641 17.4831 36.2641 17.6535C36.2641 17.8543 36.3812 17.9943 36.5335 18.049C36.6623 18.0977 36.8029 18.1099 37.0137 18.1099L37.6754 18.1281C38.3547 18.1464 38.8173 18.2681 39.0925 18.5602ZM43.9939 17.1301H41.7453C41.5227 17.1301 41.3705 17.1362 41.2475 17.2275C41.1187 17.3127 41.066 17.4405 41.066 17.6109C41.066 17.8117 41.1772 17.9517 41.3354 18.0064C41.4642 18.0551 41.6047 18.0673 41.8097 18.0673L42.4773 18.0855C43.1507 18.1038 43.6016 18.2255 43.8768 18.5176C43.9295 18.5602 43.9588 18.6028 43.9939 18.6515V17.1301Z" fill="white"/>
</svg>
