<svg width="44" height="28" viewBox="0 0 44 28" fill="none" xmlns="http://www.w3.org/2000/svg">
<g clip-path="url(#clip0_422_2609)">
<path d="M3.22238 0.00237752C1.50925 0.00237752 0.0164119 1.41224 0.0164119 3.15021L3.52901e-06 24.8498C-0.00123686 25.6844 0.324552 26.4853 0.905637 27.0762C1.48672 27.667 2.27546 27.9994 3.09817 28H40.9018C41.7246 27.9994 42.5133 27.667 43.0944 27.0762C43.6755 26.4853 44.0012 25.6844 44 24.8498V14.6954L43.9877 3.20965C43.9877 1.47109 42.7351 0 41.0243 0L3.22238 0.00237752Z" fill="#4D4D4D"/>
<path d="M23.3265 8.40002C25.0724 8.40002 26.488 9.75648 26.488 11.4325C26.488 13.1078 25.0724 14.4667 23.3265 14.4667C21.5806 14.4667 20.165 13.1084 20.165 11.4325C20.165 9.75708 21.5806 8.40002 23.3265 8.40002ZM18.3622 8.43892C18.861 8.43892 19.2789 8.54183 19.7883 8.78955V10.0963C19.3058 9.64399 18.888 9.45432 18.3346 9.45432C17.2477 9.45432 16.3926 10.3183 16.3926 11.4133C16.3926 12.5681 17.2213 13.3807 18.388 13.3807C18.9162 13.3807 19.324 13.2012 19.7877 12.756V14.0658C19.2595 14.3051 18.8334 14.3979 18.334 14.3979C16.5693 14.3979 15.1978 13.0977 15.1978 11.4211C15.1978 9.76247 16.6062 8.43652 18.3616 8.43652L18.3622 8.43892ZM12.882 8.47482C13.519 8.46867 14.1375 8.69273 14.6279 9.10727L14.0217 9.86957C13.72 9.54467 13.4348 9.40765 13.0868 9.40765C12.5874 9.40765 12.2235 9.68049 12.2235 10.0401C12.2235 10.3483 12.4277 10.511 13.1232 10.7581C14.4419 11.2206 14.8321 11.6311 14.8321 12.5376C14.8321 13.6422 13.987 14.4104 12.7828 14.4104C11.9025 14.4104 11.2569 14.0772 10.7258 13.3244L11.4747 12.6322C11.7184 13.1122 12.21 13.4077 12.7399 13.3927C13.257 13.3927 13.6396 13.0504 13.6396 12.5879C13.6396 12.3485 13.5222 12.1427 13.2922 11.9979C13.1748 11.9291 12.9448 11.8268 12.4911 11.673C11.4025 11.2966 11.0292 10.8951 11.0292 10.1089C11.0292 9.17549 11.8315 8.47422 12.8826 8.47422L12.882 8.47482ZM26.1276 8.57414H27.3935L28.9781 12.4036L30.5831 8.57414H31.8396L29.2727 14.4242H28.6494L26.1259 8.57414H26.1276ZM3.70508 8.58312H5.407C7.28499 8.58312 8.59723 9.75588 8.59723 11.439C8.59723 12.2767 8.19639 13.0899 7.51856 13.6284C6.94812 14.0831 6.29846 14.2866 5.3982 14.2866H3.70508V8.58312ZM9.13011 8.58312H10.2886V14.2848H9.13011V8.58312ZM32.3643 8.58312H35.6508V9.54945H33.5222V10.8144H35.5727V11.7807H33.5222V13.3215H35.6514V14.2848H32.3649V8.58312H32.3643ZM36.419 8.58312H38.1373C39.4742 8.58312 40.2401 9.19942 40.2401 10.2675C40.2401 11.1411 39.7594 11.7137 38.8868 11.883L40.7577 14.2848H39.3322L37.7277 11.9931H37.578V14.2848H36.419V8.58312ZM37.5769 9.48064V11.2093H37.9155C38.6555 11.2093 39.0482 10.9005 39.0482 10.3273C39.0482 9.77204 38.6555 9.48184 37.9331 9.48184L37.5769 9.48064ZM4.86356 9.55005V13.3197H5.1746C5.92345 13.3197 6.39646 13.182 6.75915 12.8661C7.16664 12.5045 7.40076 11.9808 7.40119 11.4301C7.40068 10.8839 7.16616 10.3653 6.75915 10.0102C6.37651 9.6775 5.92169 9.54886 5.1746 9.54886L4.86356 9.55005Z" fill="white"/>
<path d="M44.0001 15.8667C42.5346 16.913 31.539 24.3888 12.5054 28H40.8996C41.722 28 42.5107 27.6693 43.0922 27.0805C43.6737 26.4917 44.0001 25.6932 44.0001 24.8606V15.8667Z" fill="#F47216"/>
</g>
<defs>
<clipPath id="clip0_422_2609">
<rect width="44" height="28" fill="white"/>
</clipPath>
</defs>
</svg>
