<svg width="29" height="24" viewBox="0 0 29 24" fill="none" xmlns="http://www.w3.org/2000/svg">
<path d="M1.18701 1.68296L14.4696 13.569L26.8095 1.66992" stroke="#212427" stroke-linecap="round" stroke-linejoin="round"/>
<path d="M0.503906 3.32759V21.0172C0.503906 21.6346 0.749133 22.2266 1.18564 22.6631C1.62215 23.0996 2.21418 23.3448 2.83149 23.3448H25.1763C25.7936 23.3448 26.3857 23.0996 26.8222 22.6631C27.2587 22.2266 27.5039 21.6346 27.5039 21.0172V3.32759C27.5039 2.71027 27.2587 2.11824 26.8222 1.68173C26.3857 1.24523 25.7936 1 25.1763 1H2.83149C2.21418 1 1.62215 1.24523 1.18564 1.68173C0.749133 2.11824 0.503906 2.71027 0.503906 3.32759V3.32759Z" stroke="#212427" stroke-linecap="round" stroke-linejoin="round"/>
</svg>
