<svg width="28" height="28" viewBox="0 0 28 28" fill="none" xmlns="http://www.w3.org/2000/svg">
<mask id="mask0_422_2723" style="mask-type:alpha" maskUnits="userSpaceOnUse" x="1" y="5" width="26" height="18">
<path d="M25.375 5H2.625C1.72986 5 1 5.73496 1 6.63636V21.3636C1 22.266 1.72986 23 2.625 23H25.375C26.2711 23 27 22.266 27 21.3636V6.63636C27 5.73496 26.2711 5 25.375 5ZM17.25 6.63636H25.375V13.1818H21.6849C22.32 12.9237 22.8261 12.675 23.035 12.4637C23.9859 11.5062 23.9859 9.95023 23.035 8.99273C22.0841 8.03616 20.539 8.03616 19.5891 8.99273C19.2232 9.36114 18.1619 10.6282 17.25 11.7287V6.63636ZM18.7515 12.4702C19.5993 11.4473 20.4582 10.4318 20.7377 10.1494C20.8965 9.98951 21.1045 9.90909 21.3125 9.90909C21.5214 9.90909 21.7285 9.98764 21.8882 10.1485C22.2049 10.4673 22.2049 10.9863 21.9077 11.2874C21.6217 11.5127 20.3022 11.9877 18.7515 12.4702ZM15.625 21.3636H2.625V14.8182H14.4764L11.8021 17.5121C11.4845 17.831 11.4845 18.349 11.8021 18.6688C11.959 18.8287 12.167 18.9091 12.375 18.9091C12.5839 18.9091 12.791 18.8287 12.9507 18.6706L15.625 15.9749V21.3636ZM15.625 11.7287C14.7141 10.6282 13.6527 9.36114 13.2869 8.99179C12.336 8.03429 10.7909 8.03429 9.84093 8.99179C8.88914 9.94836 8.88914 11.5052 9.84093 12.4618C10.0499 12.675 10.555 12.9237 11.1911 13.1818H2.625V6.63636H15.625V11.7287ZM14.1235 12.4702C12.5756 11.9877 11.2607 11.5193 10.9877 11.3051C10.6701 10.9863 10.6701 10.4673 10.9877 10.1485C11.1465 9.98951 11.3545 9.90909 11.5625 9.90909C11.7714 9.90909 11.9785 9.98764 12.1382 10.1485C12.4177 10.4318 13.2757 11.4473 14.1235 12.4702ZM25.375 22.1818V21.3636H17.25V15.9749L19.9252 18.6688C20.084 18.8287 20.292 18.9091 20.5 18.9091C20.7089 18.9091 20.916 18.8287 21.0757 18.6706C21.3924 18.3509 21.3924 17.8328 21.0757 17.514L18.3986 14.8182H25.375V21.3636H25.3769L25.375 22.1818Z" fill="white"/>
</mask>
<g mask="url(#mask0_422_2723)">
<path d="M25.375 5H2.625C1.72986 5 1 5.73496 1 6.63636V21.3636C1 22.266 1.72986 23 2.625 23H25.375C26.2711 23 27 22.266 27 21.3636V6.63636C27 5.73496 26.2711 5 25.375 5ZM17.25 6.63636H25.375V13.1818H21.6849C22.32 12.9237 22.8261 12.675 23.035 12.4637C23.9859 11.5062 23.9859 9.95023 23.035 8.99273C22.0841 8.03616 20.539 8.03616 19.5891 8.99273C19.2232 9.36114 18.1619 10.6282 17.25 11.7287V6.63636ZM18.7515 12.4702C19.5993 11.4473 20.4582 10.4318 20.7377 10.1494C20.8965 9.98951 21.1045 9.90909 21.3125 9.90909C21.5214 9.90909 21.7285 9.98764 21.8882 10.1485C22.2049 10.4673 22.2049 10.9863 21.9077 11.2874C21.6217 11.5127 20.3022 11.9877 18.7515 12.4702ZM15.625 21.3636H2.625V14.8182H14.4764L11.8021 17.5121C11.4845 17.831 11.4845 18.349 11.8021 18.6688C11.959 18.8287 12.167 18.9091 12.375 18.9091C12.5839 18.9091 12.791 18.8287 12.9507 18.6706L15.625 15.9749V21.3636ZM15.625 11.7287C14.7141 10.6282 13.6527 9.36114 13.2869 8.99179C12.336 8.03429 10.7909 8.03429 9.84093 8.99179C8.88914 9.94836 8.88914 11.5052 9.84093 12.4618C10.0499 12.675 10.555 12.9237 11.1911 13.1818H2.625V6.63636H15.625V11.7287ZM14.1235 12.4702C12.5756 11.9877 11.2607 11.5193 10.9877 11.3051C10.6701 10.9863 10.6701 10.4673 10.9877 10.1485C11.1465 9.98951 11.3545 9.90909 11.5625 9.90909C11.7714 9.90909 11.9785 9.98764 12.1382 10.1485C12.4177 10.4318 13.2757 11.4473 14.1235 12.4702ZM25.375 22.1818V21.3636H17.25V15.9749L19.9252 18.6688C20.084 18.8287 20.292 18.9091 20.5 18.9091C20.7089 18.9091 20.916 18.8287 21.0757 18.6706C21.3924 18.3509 21.3924 17.8328 21.0757 17.514L18.3986 14.8182H25.375V21.3636H25.3769L25.375 22.1818Z" fill="black"/>
<path d="M29 -1H-1V29H29V-1Z" fill="#444444"/>
</g>
</svg>
