<svg width="44" height="28" viewBox="0 0 44 28" fill="none" xmlns="http://www.w3.org/2000/svg">
<path d="M30 0H14C6.26801 0 0 6.26801 0 14C0 21.732 6.26801 28 14 28H30C37.732 28 44 21.732 44 14C44 6.26801 37.732 0 30 0Z" fill="#DEDEDE"/>
<path d="M15.2842 5.1333C14.7726 5.1333 14.3579 5.55117 14.3579 6.06663C14.3579 6.5821 14.7726 6.99997 15.2842 6.99997C15.7958 6.99997 16.2105 6.5821 16.2105 6.06663C16.2099 5.55142 15.7956 5.13392 15.2842 5.1333Z" fill="#999999"/>
<path d="M15.2848 13.0667C14.91 13.0664 14.5721 13.2937 14.4286 13.6425C14.285 13.9914 14.3643 14.3929 14.6292 14.6599C14.8942 14.9269 15.2928 15.0067 15.639 14.8621C15.9852 14.7175 16.2108 14.377 16.2105 13.9994C16.2099 13.4845 15.7958 13.0673 15.2848 13.0667Z" fill="#999999"/>
<path d="M15.2842 15.4C14.9095 15.4 14.5717 15.6275 14.4284 15.9763C14.2851 16.3251 14.3644 16.7266 14.6294 16.9935C14.8945 17.2604 15.293 17.3401 15.6391 17.1955C15.9852 17.0508 16.2108 16.7103 16.2105 16.3328C16.2096 15.8178 15.7954 15.4006 15.2842 15.4Z" fill="#999999"/>
<path d="M15.2842 7.93335C14.7726 7.93335 14.3579 8.35122 14.3579 8.86668C14.3579 9.38215 14.7726 9.80002 15.2842 9.80002C15.7958 9.80002 16.2105 9.38215 16.2105 8.86668C16.2099 8.35147 15.7956 7.93397 15.2842 7.93335Z" fill="#999999"/>
<path d="M15.2848 18.2C14.9101 18.1997 14.5722 18.427 14.4286 18.7757C14.2851 19.1245 14.3642 19.526 14.629 19.793C14.8939 20.0601 15.2924 20.14 15.6386 19.9956C15.9848 19.8512 16.2105 19.5108 16.2105 19.1333C16.2099 18.6183 15.7959 18.2009 15.2848 18.2Z" fill="#999999"/>
<path d="M15.2842 20.5333C14.9095 20.5333 14.5717 20.7608 14.4284 21.1096C14.2851 21.4584 14.3644 21.8599 14.6294 22.1268C14.8945 22.3937 15.293 22.4734 15.6391 22.3288C15.9852 22.1841 16.2108 21.8436 16.2105 21.4661C16.2096 20.9511 15.7954 20.5339 15.2842 20.5333Z" fill="#999999"/>
<path d="M15.2842 10.2667C14.7726 10.2667 14.3579 10.6846 14.3579 11.2001C14.3579 11.7155 14.7726 12.1334 15.2842 12.1334C15.7958 12.1334 16.2105 11.7155 16.2105 11.2001C16.2099 10.6848 15.7956 10.2673 15.2842 10.2667Z" fill="#999999"/>
<path d="M17.6001 5.1333C17.0886 5.1333 16.6738 5.55117 16.6738 6.06663C16.6738 6.5821 17.0886 6.99997 17.6001 6.99997C18.1117 6.99997 18.5265 6.5821 18.5265 6.06663C18.5258 5.55142 18.1115 5.13392 17.6001 5.1333Z" fill="#999999"/>
<path d="M17.6007 13.0667C17.226 13.0664 16.888 13.2937 16.7445 13.6425C16.601 13.9914 16.6802 14.3929 16.9452 14.6599C17.2102 14.9269 17.6087 15.0067 17.9549 14.8621C18.3011 14.7175 18.5267 14.377 18.5265 13.9994C18.5258 13.4845 18.1117 13.0673 17.6007 13.0667Z" fill="#999999"/>
<path d="M17.6002 15.4C17.2255 15.4 16.8877 15.6275 16.7443 15.9763C16.601 16.3251 16.6803 16.7266 16.9454 16.9935C17.2104 17.2604 17.6089 17.3401 17.955 17.1955C18.3011 17.0508 18.5267 16.7103 18.5265 16.3328C18.5255 15.8178 18.1113 15.4006 17.6002 15.4Z" fill="#999999"/>
<path d="M17.6001 7.93335C17.0886 7.93335 16.6738 8.35122 16.6738 8.86668C16.6738 9.38215 17.0886 9.80002 17.6001 9.80002C18.1117 9.80002 18.5265 9.38215 18.5265 8.86668C18.5258 8.35147 18.1115 7.93397 17.6001 7.93335Z" fill="#999999"/>
<path d="M17.6007 18.2C17.226 18.1997 16.8881 18.427 16.7445 18.7757C16.601 19.1245 16.6801 19.526 16.945 19.793C17.2098 20.0601 17.6083 20.14 17.9545 19.9956C18.3007 19.8512 18.5265 19.5108 18.5265 19.1333C18.5258 18.6183 18.1118 18.2009 17.6007 18.2Z" fill="#999999"/>
<path d="M17.6002 20.5333C17.2255 20.5333 16.8877 20.7608 16.7443 21.1096C16.601 21.4584 16.6803 21.8599 16.9454 22.1268C17.2104 22.3937 17.6089 22.4734 17.955 22.3288C18.3011 22.1841 18.5267 21.8436 18.5265 21.4661C18.5255 20.9511 18.1113 20.5339 17.6002 20.5333Z" fill="#999999"/>
<path d="M17.6001 10.2666C17.0886 10.2666 16.6738 10.6845 16.6738 11.1999C16.6738 11.7154 17.0886 12.1333 17.6001 12.1333C18.1117 12.1333 18.5265 11.7154 18.5265 11.1999C18.5258 10.6847 18.1115 10.2672 17.6001 10.2666Z" fill="#999999"/>
<path d="M20.379 5.1333C19.8674 5.1333 19.4526 5.55117 19.4526 6.06663C19.4526 6.5821 19.8674 6.99997 20.379 6.99997C20.8905 6.99997 21.3053 6.5821 21.3053 6.06663C21.3047 5.55142 20.8903 5.13392 20.379 5.1333Z" fill="#999999"/>
<path d="M20.3795 13.0667C20.0048 13.0664 19.6668 13.2937 19.5233 13.6425C19.3798 13.9914 19.459 14.3929 19.724 14.6599C19.989 14.9269 20.3875 15.0067 20.7337 14.8621C21.0799 14.7175 21.3055 14.377 21.3053 13.9994C21.3047 13.4845 20.8905 13.0673 20.3795 13.0667Z" fill="#999999"/>
<path d="M20.379 15.4C20.0043 15.4 19.6665 15.6275 19.5231 15.9763C19.3798 16.3251 19.4591 16.7266 19.7242 16.9935C19.9892 17.2604 20.3877 17.3401 20.7338 17.1955C21.0799 17.0508 21.3055 16.7103 21.3053 16.3328C21.3044 15.8178 20.8901 15.4006 20.379 15.4Z" fill="#999999"/>
<path d="M22.6943 5.1333C22.1828 5.13361 21.7684 5.55161 21.7686 6.06701C21.7688 6.5824 22.1835 7.00007 22.6951 6.99997C23.2066 6.99986 23.6212 6.58203 23.6212 6.06663C23.6203 5.55133 23.2057 5.13392 22.6943 5.1333Z" fill="#999999"/>
<path d="M22.6949 13.0667C22.3202 13.0667 21.9824 13.2941 21.839 13.6429C21.6957 13.9918 21.7751 14.3932 22.0401 14.6601C22.3051 14.927 22.7036 15.0067 23.0497 14.8621C23.3959 14.7174 23.6214 14.377 23.6212 13.9994C23.6203 13.4844 23.206 13.0673 22.6949 13.0667Z" fill="#999999"/>
<path d="M22.6943 15.4C22.1827 15.4003 21.7682 15.8185 21.7686 16.3339C21.7689 16.8494 22.1838 17.267 22.6954 17.2667C23.207 17.2664 23.6215 16.8483 23.6212 16.3328C23.6203 15.8176 23.2057 15.4003 22.6943 15.4Z" fill="#999999"/>
<path d="M25.4731 5.1333C24.9616 5.13361 24.5472 5.55161 24.5474 6.06701C24.5476 6.5824 24.9623 7.00007 25.4739 6.99997C25.9854 6.99986 26.4 6.58203 26.4 6.06663C26.3994 5.55121 25.9847 5.13361 25.4731 5.1333Z" fill="#999999"/>
<path d="M25.4737 13.0667C25.099 13.0667 24.7612 13.2941 24.6178 13.6429C24.4745 13.9918 24.5539 14.3932 24.8189 14.6601C25.0839 14.927 25.4824 15.0067 25.8286 14.8621C26.1747 14.7174 26.4002 14.377 26.4 13.9994C26.3994 13.4843 25.9849 13.067 25.4737 13.0667Z" fill="#999999"/>
<path d="M25.4731 7.93335C24.9616 7.93366 24.5472 8.35166 24.5474 8.86706C24.5476 9.38245 24.9623 9.80012 25.4739 9.80002C25.9854 9.79991 26.4 9.38208 26.4 8.86668C26.3994 8.35125 25.9847 7.93366 25.4731 7.93335Z" fill="#999999"/>
<path d="M22.6949 18.2C22.1833 18.2 21.7686 18.6178 21.7686 19.1333C21.7686 19.6487 22.1833 20.0666 22.6949 20.0666C23.2065 20.0666 23.6212 19.6487 23.6212 19.1333C23.6206 18.6181 23.2062 18.2006 22.6949 18.2Z" fill="#999999"/>
<path d="M25.4731 20.5333C24.9615 20.5336 24.5471 20.9518 24.5474 21.4672C24.5477 21.9827 24.9626 22.4003 25.4742 22.4C25.9858 22.3997 26.4003 21.9816 26.4 21.4661C26.3991 20.9509 25.9845 20.5336 25.4731 20.5333Z" fill="#999999"/>
<path d="M25.4731 10.2667C24.9616 10.267 24.5472 10.685 24.5474 11.2004C24.5476 11.7158 24.9623 12.1335 25.4739 12.1334C25.9854 12.1333 26.4 11.7154 26.4 11.2001C26.3994 10.6846 25.9847 10.267 25.4731 10.2667Z" fill="#999999"/>
<path d="M27.7902 9.80002C28.3017 9.79971 28.7161 9.3817 28.7159 8.86631C28.7157 8.35092 28.3009 7.93325 27.7894 7.93335C27.2779 7.93345 26.8633 8.35129 26.8633 8.86668C26.8642 9.38198 27.2787 9.7994 27.7902 9.80002Z" fill="#999999"/>
<path d="M25.4737 18.2C24.9621 18.2 24.5474 18.6178 24.5474 19.1333C24.5474 19.6487 24.9621 20.0666 25.4737 20.0666C25.9853 20.0666 26.4 19.6487 26.4 19.1333C26.3997 18.6179 25.9851 18.2003 25.4737 18.2Z" fill="#999999"/>
<path d="M27.789 20.5333C27.2775 20.5336 26.863 20.9518 26.8633 21.4672C26.8636 21.9827 27.2786 22.4003 27.7902 22.4C28.3017 22.3997 28.7162 21.9816 28.7159 21.4661C28.715 20.9509 28.3004 20.5336 27.789 20.5333Z" fill="#999999"/>
<path d="M27.789 10.2666C27.2775 10.2669 26.8631 10.6849 26.8633 11.2003C26.8635 11.7157 27.2783 12.1334 27.7898 12.1333C28.3013 12.1332 28.7159 11.7153 28.7159 11.1999C28.715 10.6846 28.3005 10.2672 27.789 10.2666Z" fill="#999999"/>
</svg>
