<svg width="28" height="28" viewBox="0 0 28 28" fill="none" xmlns="http://www.w3.org/2000/svg">
<path fill-rule="evenodd" clip-rule="evenodd" d="M14.0002 4.32026C17.1549 4.32026 17.5252 4.33433 18.7721 4.39058C19.9252 4.44214 20.5486 4.63433 20.9658 4.79839C21.5189 5.01401 21.9127 5.26714 22.3252 5.67964C22.7377 6.09214 22.9955 6.48589 23.2064 7.03901C23.3658 7.4562 23.5627 8.07964 23.6143 9.23276C23.6705 10.4796 23.6846 10.85 23.6846 14.0046C23.6846 17.1593 23.6705 17.5296 23.6143 18.7765C23.5627 19.9296 23.3705 20.5531 23.2064 20.9703C22.9908 21.5234 22.7377 21.9171 22.3252 22.3296C21.9127 22.7421 21.5189 23 20.9658 23.2109C20.5486 23.3703 19.9252 23.5671 18.7721 23.6187C17.5252 23.675 17.1549 23.689 14.0002 23.689C10.8455 23.689 10.4752 23.675 9.22832 23.6187C8.0752 23.5671 7.45176 23.375 7.03457 23.2109C6.48145 22.9953 6.0877 22.7421 5.6752 22.3296C5.2627 21.9171 5.00488 21.5234 4.79395 20.9703C4.63457 20.5531 4.4377 19.9296 4.38613 18.7765C4.32988 17.5296 4.31582 17.1593 4.31582 14.0046C4.31582 10.85 4.32988 10.4796 4.38613 9.23276C4.4377 8.07964 4.62988 7.4562 4.79395 7.03901C5.00957 6.48589 5.2627 6.09214 5.6752 5.67964C6.0877 5.26714 6.48145 5.00933 7.03457 4.79839C7.45176 4.63901 8.0752 4.44214 9.22832 4.39058C10.4752 4.32964 10.8455 4.32026 14.0002 4.32026ZM14.0002 2.19214C10.7939 2.19214 10.3908 2.2062 9.12988 2.26245C7.87363 2.3187 7.01582 2.52026 6.26582 2.81089C5.4877 3.11089 4.83145 3.5187 4.1752 4.17495C3.51895 4.8312 3.11582 5.49214 2.81113 6.26558C2.52051 7.01558 2.31895 7.87339 2.2627 9.13433C2.20645 10.3906 2.19238 10.7937 2.19238 14C2.19238 17.2062 2.20645 17.6093 2.2627 18.8703C2.31895 20.1265 2.52051 20.9843 2.81113 21.739C3.11113 22.5171 3.51895 23.1734 4.1752 23.8296C4.83145 24.4859 5.49238 24.889 6.26582 25.1937C7.01582 25.4843 7.87363 25.6859 9.13457 25.7421C10.3955 25.7984 10.7939 25.8125 14.0049 25.8125C17.2158 25.8125 17.6143 25.7984 18.8752 25.7421C20.1314 25.6859 20.9893 25.4843 21.7439 25.1937C22.5221 24.8937 23.1783 24.4859 23.8346 23.8296C24.4908 23.1734 24.8939 22.5125 25.1986 21.739C25.4893 20.989 25.6908 20.1312 25.7471 18.8703C25.8033 17.6093 25.8174 17.2109 25.8174 14C25.8174 10.789 25.8033 10.3906 25.7471 9.12964C25.6908 7.87339 25.4893 7.01558 25.1986 6.26089C24.8986 5.48276 24.4908 4.82651 23.8346 4.17026C23.1783 3.51401 22.5174 3.11089 21.7439 2.8062C20.9939 2.51558 20.1361 2.31401 18.8752 2.25776C17.6096 2.2062 17.2064 2.19214 14.0002 2.19214ZM14.0002 7.93433C10.6533 7.93433 7.93457 10.6484 7.93457 14C7.93457 17.3515 10.6533 20.0656 14.0002 20.0656C17.3471 20.0656 20.0658 17.3468 20.0658 14C20.0658 10.6531 17.3471 7.93433 14.0002 7.93433ZM14.0002 17.9375C11.8252 17.9375 10.0627 16.175 10.0627 14C10.0627 11.825 11.8252 10.0625 14.0002 10.0625C16.1752 10.0625 17.9377 11.825 17.9377 14C17.9377 16.175 16.1752 17.9375 14.0002 17.9375ZM20.3049 9.11089C21.0867 9.11089 21.7205 8.47709 21.7205 7.69526C21.7205 6.91344 21.0867 6.27964 20.3049 6.27964C19.5231 6.27964 18.8893 6.91344 18.8893 7.69526C18.8893 8.47709 19.5231 9.11089 20.3049 9.11089Z" fill="#6E6E6E"/>
</svg>
