<svg width="45" height="25" viewBox="0 0 45 25" fill="none" xmlns="http://www.w3.org/2000/svg">
<rect width="45" height="25" rx="4.321" fill="#FFB3C7"/>
<path fill-rule="evenodd" clip-rule="evenodd" d="M9.07222 13.0989C10.3056 11.8596 10.9978 10.1923 10.9978 8.40004L10.9978 8.40002H9.15573C9.15573 9.92352 8.46153 11.3219 7.25123 12.2367L6.52142 12.7882L9.34922 16.6792H11.6742L9.07222 13.0989ZM4.41382 16.6789H6.29622V8.40004H4.41382V16.6789ZM14.0006 16.6767H12.2229V8.40159H14.0006V16.6767ZM37.2919 10.9524H38.9903V16.6766H37.2919V16.3108C36.8121 16.641 36.2329 16.8351 35.6082 16.8351C33.9551 16.8351 32.6149 15.4828 32.6149 13.8146C32.6149 12.1464 33.9551 10.7942 35.6082 10.7942C36.2329 10.7942 36.8121 10.9883 37.2919 11.3186V10.9524ZM35.7473 12.342C36.5972 12.342 37.2862 13.0012 37.2862 13.8146C37.2862 14.628 36.5973 15.2874 35.7473 15.2874C34.8973 15.2874 34.2083 14.628 34.2083 13.8146C34.2083 13.0013 34.8974 12.342 35.7473 12.342ZM39.7275 15.722C39.7275 15.1279 40.2047 14.6463 40.7935 14.6463C41.3822 14.6463 41.8596 15.1278 41.8596 15.722C41.8596 16.316 41.3822 16.7977 40.7935 16.7977C40.2047 16.7977 39.7275 16.316 39.7275 15.722ZM23.6999 10.9525V11.698L23.6999 11.6982C24.0404 11.251 24.6748 10.953 25.3645 10.953V12.6186L25.355 12.6182C25.3515 12.618 25.348 12.6178 25.3443 12.6178C24.6723 12.6178 23.7038 13.1024 23.7038 14.0041V16.6766H21.961V10.9525H23.6999ZM19.3683 13.8146C19.3683 13.0013 18.6792 12.342 17.8293 12.342C16.9794 12.342 16.2903 13.0013 16.2903 13.8146C16.2903 14.628 16.9793 15.2874 17.8293 15.2874C18.6793 15.2874 19.3683 14.628 19.3683 13.8146ZM21.0725 10.9525H19.374V11.3186C18.8942 10.9883 18.3151 10.7942 17.6904 10.7942C16.0372 10.7942 14.697 12.1464 14.697 13.8146C14.697 15.4828 16.0372 16.8351 17.6904 16.8351C18.315 16.8351 18.8942 16.641 19.374 16.3108V16.6767H21.0725V10.9525ZM29.5969 10.7985C28.9185 10.7985 28.2763 11.011 27.847 11.5974V10.9528H26.1559V16.6767H27.8678V13.6686C27.8678 12.7981 28.4463 12.3719 29.1428 12.3719C29.8893 12.3719 30.3184 12.8218 30.3184 13.6568V16.6767H32.0148V13.0366C32.0148 11.7045 30.9652 10.7986 29.5969 10.7986V10.7985Z" fill="#0A0B09"/>
</svg>
