<svg width="38" height="9" viewBox="0 0 38 9" fill="none" xmlns="http://www.w3.org/2000/svg">
<path fill-rule="evenodd" clip-rule="evenodd" d="M5.07222 5.09894C6.30563 3.85964 6.99782 2.19234 6.99782 0.400044L6.99783 0.400024H5.15573C5.15573 1.92352 4.46153 3.32188 3.25123 4.23672L2.52142 4.78824L5.34922 8.67924H7.67422L5.07222 5.09894ZM0.413818 8.67894H2.29622V0.400044H0.413818V8.67894ZM10.0006 8.67669H8.22292V0.401586H10.0006V8.67669ZM33.2919 2.95243H34.9903V8.67663H33.2919V8.31079C32.8121 8.64099 32.2329 8.8351 31.6082 8.8351C29.9551 8.8351 28.6149 7.4828 28.6149 5.8146C28.6149 4.1464 29.9551 2.7942 31.6082 2.7942C32.2329 2.7942 32.8121 2.9883 33.2919 3.3186V2.95243ZM31.7473 4.34203C32.5972 4.34203 33.2862 5.00125 33.2862 5.81463C33.2862 6.62802 32.5973 7.28743 31.7473 7.28743C30.8973 7.28743 30.2083 6.62802 30.2083 5.81463C30.2083 5.00128 30.8974 4.34203 31.7473 4.34203ZM35.7275 7.72199C35.7275 7.12787 36.2047 6.64629 36.7935 6.64629C37.3822 6.64629 37.8596 7.12783 37.8596 7.72199C37.8596 8.31602 37.3822 8.79769 36.7935 8.79769C36.2047 8.79769 35.7275 8.31599 35.7275 7.72199ZM19.6999 2.95251V3.69805L19.6999 3.69816C20.0404 3.25096 20.6748 2.95296 21.3645 2.95296V4.61856L21.355 4.61819C21.3515 4.618 21.348 4.61781 21.3443 4.61781C20.6723 4.61781 19.7038 5.10244 19.7038 6.00411V8.67661H17.961V2.95251H19.6999ZM15.3683 5.81465C15.3683 5.00127 14.6792 4.34205 13.8293 4.34205C12.9794 4.34205 12.2903 5.0013 12.2903 5.81465C12.2903 6.62804 12.9793 7.28745 13.8293 7.28745C14.6793 7.28745 15.3683 6.62804 15.3683 5.81465ZM17.0725 2.95245H15.374V3.31862C14.8942 2.98832 14.3151 2.79422 13.6904 2.79422C12.0372 2.79422 10.697 4.14642 10.697 5.81462C10.697 7.48282 12.0372 8.83512 13.6904 8.83512C14.315 8.83512 14.8942 8.64101 15.374 8.31081V8.67665H17.0725V2.95245ZM25.5969 2.79849C24.9185 2.79849 24.2763 3.01104 23.847 3.59744V2.95279H22.1559V8.67669H23.8678V5.66859C23.8678 4.79813 24.4463 4.37189 25.1428 4.37189C25.8893 4.37189 26.3184 4.82185 26.3184 5.65679V8.67669H28.0148V5.03659C28.0148 3.70449 26.9652 2.79859 25.5969 2.79859V2.79849Z" fill="#0A0B09"/>
</svg>
