<svg width="44" height="28" viewBox="0 0 44 28" fill="none" xmlns="http://www.w3.org/2000/svg">
<path d="M30 0H14C6.26801 0 0 6.26801 0 14C0 21.732 6.26801 28 14 28H30C37.732 28 44 21.732 44 14C44 6.26801 37.732 0 30 0Z" fill="black"/>
<path d="M26.9367 5.64868H17.4409V22.8176H26.9367V5.64868Z" fill="#FF4000"/>
<path d="M18.0676 14.2334C18.0646 10.883 19.5934 7.7174 22.2134 5.6492C17.7636 2.13054 11.3731 2.64274 7.53324 6.82583C3.69335 11.0089 3.69335 17.4584 7.53324 21.6415C11.3731 25.8246 17.7636 26.3368 22.2134 22.8181C19.5934 20.7499 18.0646 17.5843 18.0676 14.2339" fill="#EE0C0C"/>
<path d="M28.9208 3.31459C26.4875 3.31088 24.1241 4.13348 22.2134 5.64923C24.8311 7.71945 26.3594 10.8839 26.3594 14.2337C26.3594 17.5835 24.8311 20.7479 22.2134 22.8181C25.9497 25.7724 31.162 25.9376 35.0758 23.2259C38.9897 20.5141 40.6947 15.5562 39.2835 10.9909C37.8723 6.42567 33.673 3.315 28.9208 3.31459Z" fill="#FF8F00"/>
</svg>
