<svg width="144" height="54" viewBox="0 0 144 54" fill="none" xmlns="http://www.w3.org/2000/svg">
<path d="M15.0442 0.136081C17.8344 0.140158 20.5608 0.971006 22.879 2.52369C25.1972 4.07637 27.0034 6.28123 28.0692 8.8598C29.1351 11.4384 29.4129 14.275 28.8676 17.0113C28.3222 19.7477 26.9782 22.2611 25.0053 24.234C23.0323 26.207 20.5189 27.551 17.7826 28.0963C15.0462 28.6417 12.2096 28.3639 9.63104 27.298C7.05247 26.2321 4.84761 24.426 3.29493 22.1078C1.74225 19.7895 0.911398 17.0631 0.907321 14.273C0.90051 12.4146 1.26152 10.5732 1.96955 8.85496C2.67759 7.13672 3.71864 5.57558 5.03273 4.26149C6.34682 2.9474 7.90796 1.90635 9.6262 1.19831C11.3444 0.490281 13.1858 0.12927 15.0442 0.136081V0.136081ZM15.0442 23.8507C20.2999 23.8507 24.3891 19.5678 24.3891 14.273C24.3891 8.93684 20.2999 4.65394 15.0442 4.65394C9.78847 4.65394 5.69725 8.93684 5.69725 14.273C5.69725 19.5678 9.78641 23.8507 15.0442 23.8507Z" fill="black"/>
<path d="M58.0792 27.9007H53.4067V0.643066H69.5614V4.88681H58.0792V11.8182H68.8606V16.064H58.0792V27.9007Z" fill="black"/>
<path d="M37.6995 27.9007H33.0332V0.643066H49.1899V4.88681H37.6995V11.8182H48.4809V16.064H37.6995V27.9007Z" fill="black"/>
<path d="M79.7183 21.5712C82.1029 23.4261 84.5288 24.3268 86.9959 24.3268C90.2441 24.3268 93.0822 22.4719 93.0822 19.2277C93.0822 16.1856 90.3266 14.4172 86.7898 14.4172C84.5719 14.4271 82.3879 14.9625 80.417 15.9795L81.363 0.572998H96.4933V4.90124H85.3924L85.0214 10.6022C85.7222 10.3569 87.0371 10.1899 88.2696 10.1899C93.6985 10.1899 98.0164 13.7659 98.0164 19.1535C98.0164 25.279 93.3275 28.8158 87.2432 28.857C84.5772 28.8725 81.9637 28.1159 79.7183 26.6785V21.5712Z" fill="black"/>
<path d="M99.8447 0.572998H119.219V4.90124H111.885V27.8244H107.174V4.89712H99.8447V0.572998Z" fill="black"/>
<path d="M122.564 0.572998H127.238V11.5935H139.071V0.572998H143.743V27.8244H139.071V16.0331H127.238V27.8244H122.564V0.572998Z" fill="black"/>
<path d="M26.8354 53.3508C27.2044 53.3565 27.5733 53.3393 27.9402 53.2993C28.2988 52.9902 28.4019 52.3739 28.4781 50.758C28.5049 49.5502 28.5296 47.4953 28.5296 45.8795V42.2066C28.5296 36.1986 28.4266 36.0234 27.1693 36.0234H26.7757C26.5696 36.0234 26.5696 35.7926 26.7757 35.7926C27.495 35.7926 29.3685 35.8441 29.7539 35.8441C30.1393 35.8441 33.0145 35.7926 33.4515 35.7926C37.9858 35.7926 40.152 37.2807 40.152 39.9518C40.152 42.2376 37.5839 43.7257 34.0925 44.1873C36.8399 44.2141 37.9178 44.9334 39.4512 48.4249C41.4031 52.8912 41.838 53.355 43.3281 53.355H43.5074C43.7383 53.355 43.7383 53.5858 43.4827 53.5858H42.5573C41.3763 53.5858 40.6054 53.6889 40.1953 53.6889C39.935 53.7071 39.6743 53.6601 39.4368 53.5521C39.1992 53.4441 38.9924 53.2786 38.835 53.0705C38.3218 52.4522 37.7303 51.2733 36.9594 49.2184C35.3106 44.9046 34.5727 44.4182 32.3138 44.3666H31.106V46.9306C31.106 53.2478 31.2338 53.3508 32.4931 53.3508H33.0063C33.2124 53.3508 33.2124 53.5817 33.0063 53.5817C32.287 53.5817 30.2341 53.5302 29.8735 53.5302C29.5128 53.5302 27.0251 53.5817 26.819 53.5817C26.6129 53.5817 26.6293 53.3508 26.8354 53.3508ZM31.1225 44.076C31.6109 44.0492 32.2272 44.0492 33.1506 44.0492C35.1024 44.0492 37.2335 42.8682 37.2335 39.9663C37.2335 37.2972 35.9248 36.0131 33.099 36.0131H31.9964C31.2008 36.0131 31.1225 36.1677 31.1225 39.35V44.076Z" fill="black"/>
<path d="M43.1387 47.6767C43.1387 43.9008 46.7064 40.4877 50.5317 40.4877C54.153 40.4877 55.1794 42.5158 55.0764 43.8245C55.0249 44.3893 54.794 44.7232 53.5615 44.7232H45.5316C45.4261 45.2469 45.375 45.7801 45.3791 46.3143C45.3791 49.5749 47.9451 51.8606 51.3562 51.8606C54.4127 51.8606 56.3893 49.8841 57.6218 46.5967C57.7249 46.3411 57.9042 46.3906 57.8011 46.6482C56.9767 48.9339 55.4907 51.2959 53.5388 52.6047C52.3758 53.4058 50.9979 53.8369 49.5857 53.8413C45.6552 53.8372 43.1387 51.2959 43.1387 47.6767ZM45.5522 44.5439C47.9657 44.5171 49.5568 44.4408 51.0202 44.4161C51.3765 44.3937 51.7258 44.3064 52.0507 44.1584C52.2612 43.899 52.3625 43.5679 52.3331 43.2351C52.3331 42.2581 51.5087 40.9679 49.6888 40.9679C47.6318 40.9741 46.0654 42.2066 45.5522 44.5439V44.5439Z" fill="black"/>
<path d="M61.5728 53.5301L58.104 44.2347C56.9993 41.205 56.5891 40.9741 55.4844 40.9741C55.3319 40.9741 55.3319 40.7433 55.4597 40.7433C55.5874 40.7433 57.4362 40.7948 57.7969 40.7948C58.1576 40.7948 60.7484 40.7433 61.3646 40.7433C61.3816 40.74 61.3991 40.7406 61.4158 40.7449C61.4326 40.7492 61.4481 40.7572 61.4614 40.7682C61.4748 40.7792 61.4855 40.7931 61.4928 40.8087C61.5002 40.8243 61.504 40.8414 61.504 40.8587C61.504 40.876 61.5002 40.893 61.4928 40.9087C61.4855 40.9243 61.4748 40.9382 61.4614 40.9492C61.4481 40.9602 61.4326 40.9682 61.4158 40.9725C61.3991 40.9768 61.3816 40.9773 61.3646 40.9741C59.9219 40.9741 59.6951 41.104 60.5402 43.4907L63.1866 50.6549L66.0865 43.9276C66.134 43.6825 66.143 43.4315 66.1133 43.1836C66.0885 42.8369 66.0012 42.4975 65.8557 42.1819C65.5486 41.4626 64.9839 40.9741 64.1347 40.9741C63.9286 40.9741 63.9286 40.7433 64.11 40.7433C64.7777 40.7433 66.678 40.7948 66.9851 40.7948C67.3458 40.7948 69.2709 40.7433 69.7078 40.7433C69.9139 40.7433 69.9387 40.9741 69.7078 40.9741C68.296 40.9741 68.0899 41.104 69.04 43.4907L71.8637 50.758L74.1494 45.2117C75.2789 42.4127 74.4318 40.9741 72.6861 40.9741C72.48 40.9741 72.48 40.7433 72.6593 40.7433C73.3023 40.7433 74.9965 40.7948 75.3036 40.7948C75.6643 40.7948 77.5894 40.7433 77.7769 40.7433C77.9645 40.7433 77.983 40.9741 77.8037 40.9741C76.4929 40.9741 75.6973 42.1551 74.3617 45.3642L71.0248 53.5033C71.0123 53.5551 70.9828 53.6012 70.9409 53.6341C70.899 53.667 70.8473 53.6848 70.794 53.6847H70.5632C70.5123 53.6924 70.4605 53.6808 70.4178 53.6522C70.3751 53.6236 70.3446 53.5801 70.3323 53.5301L66.4287 43.7483L62.2694 53.5033C62.2179 53.6332 62.1664 53.6847 62.0633 53.6847H61.8139C61.7615 53.6952 61.7071 53.685 61.6621 53.6562C61.6171 53.6273 61.5851 53.5821 61.5728 53.5301V53.5301Z" fill="black"/>
<path d="M77.0781 50.9889C77.0781 49.2679 78.593 47.7015 83.5499 45.7764L85.5512 45.0056C85.4749 41.7697 84.7824 40.6918 83.0614 40.6918C82.7523 40.678 82.4439 40.7332 82.1587 40.8533C81.8735 40.9734 81.6186 41.1555 81.4125 41.3863C80.718 42.0789 80.4109 43.2083 80.0502 43.8596C79.8193 44.3213 79.4607 44.5254 78.6074 44.5254C77.7542 44.5254 77.3481 44.1667 77.3481 43.7298C77.3481 43.2928 77.682 42.7281 78.3787 42.2664C79.5329 41.4709 81.7423 40.496 83.488 40.496C86.2087 40.496 88.0842 41.778 88.0842 45.1416C88.0842 46.7905 87.9296 49.507 87.9296 50.6632C87.9296 52.0235 88.0842 52.6913 88.5974 52.6913C89.0591 52.6913 89.6754 51.8174 89.9577 51.1764C89.9703 51.1541 89.9873 51.1347 90.0077 51.1193C90.0282 51.1039 90.0516 51.0929 90.0765 51.087C90.1013 51.081 90.1272 51.0803 90.1524 51.0849C90.1775 51.0894 90.2015 51.0991 90.2228 51.1134C90.244 51.1276 90.2621 51.1461 90.2758 51.1677C90.2896 51.1893 90.2987 51.2135 90.3027 51.2388C90.3066 51.264 90.3053 51.2899 90.2988 51.3146C90.2923 51.3393 90.2807 51.3625 90.2648 51.3825C89.8815 51.9741 88.2635 53.8558 86.9032 53.8558C85.7985 53.8558 85.2853 53.2148 85.2853 51.8545C85.2853 51.263 85.31 50.4922 85.3616 50.0305C84.7721 51.2671 82.6409 53.8826 80.3305 53.8826C78.3622 53.8641 77.0781 52.5573 77.0781 50.9889ZM82.0082 52.4316C83.6261 52.4316 85.0895 50.4035 85.3987 49.5049C85.4234 48.967 85.5512 47.4768 85.5512 45.525V45.1911L83.6014 46.0382C80.4933 47.349 79.5184 48.2724 79.5184 50.0449C79.5184 51.3475 80.5448 52.4007 82.0123 52.4254L82.0082 52.4316Z" fill="black"/>
<path d="M90.3269 53.3509C91.4811 53.3509 91.714 53.2478 91.714 50.5251V44.1358C91.714 43.3897 91.1225 42.7219 90.533 42.184C90.4547 42.1057 90.4815 42.0562 90.533 42.0294C90.9947 41.8501 92.5096 41.0545 92.9713 40.6176C93.0228 40.5661 93.0475 40.5661 93.1259 40.6423C93.6123 41.1061 94.2285 42.4973 94.2285 43.8782V44.006C94.5109 42.6209 95.1272 41.7986 95.7949 41.2586C96.0461 41.0049 96.3468 40.8057 96.6784 40.6734C97.0099 40.5411 97.3652 40.4786 97.722 40.4898C98.3898 40.4898 98.9793 40.6423 98.9793 41.0545C98.9793 41.5409 98.361 42.8518 97.4644 42.8518H96.3597C95.461 42.8518 94.9746 42.928 94.6655 43.264C94.3316 43.7009 94.2533 44.5006 94.2533 45.9434V53.3632H95.9475C96.1536 53.3632 96.1536 53.5941 95.9475 53.5941C95.7414 53.5941 93.637 53.5425 93.2269 53.5425C92.8167 53.5425 91.0813 53.5879 90.3269 53.5879C90.1208 53.5879 90.1208 53.3509 90.3269 53.3509Z" fill="black"/>
<path d="M98.7729 48.0869C98.7729 43.5175 102.291 40.4877 106.065 40.4877C107.088 40.4903 108.088 40.7935 108.94 41.3595V36.3285C108.94 34.119 108.528 34.119 107.246 34.3498C107.04 34.3766 107.04 34.1437 107.246 34.119C108.53 33.8882 110.096 33.1956 110.968 32.7072C111.047 32.6556 111.481 32.7587 111.481 32.8865V50.5251C111.481 53.0417 111.508 53.3508 112.792 53.3508C112.998 53.3508 112.998 53.5817 112.792 53.5817C111.226 53.5817 109.907 53.6579 109.068 53.8372C108.862 53.8888 108.761 53.7857 108.761 53.6064C108.867 52.7549 108.927 51.8983 108.94 51.0404C107.631 52.8376 105.783 53.8372 103.882 53.8372C100.879 53.8372 98.7729 51.3722 98.7729 48.0869ZM105.473 52.8108C106.836 52.8108 108.068 51.9637 108.94 50.6797V43.3629C108.196 42.3324 106.836 40.9494 105.166 40.9494C102.677 40.9494 101.29 42.8744 101.29 46.8296C101.29 49.9872 102.753 52.8108 105.473 52.8108Z" fill="black"/>
<path d="M114.408 52.9902C114.28 52.9654 114.229 52.8624 114.229 52.6315C114.229 52.2461 114.435 50.9827 114.435 48.1384C114.435 47.9323 114.614 47.9076 114.614 48.1116C114.666 49.8079 115.026 51.2444 115.871 52.1946C116.615 53.0932 117.772 53.6373 119.311 53.6373C121.443 53.6373 122.393 52.5841 122.393 51.1455C122.393 49.4513 120.443 48.835 118.464 48.1673C116.333 47.45 114.177 46.6524 114.177 44.5212C114.177 41.8254 116.898 40.4918 119.21 40.4918C120.625 40.4776 122.036 40.6158 123.421 40.9041C123.574 40.9556 123.627 41.0071 123.627 41.1102C123.627 41.8789 123.499 44.4223 123.499 45.525C123.499 45.7311 123.32 45.7311 123.293 45.525C123.269 44.1647 122.959 43.0352 122.37 42.1881C121.651 41.2112 120.573 40.6979 119.058 40.6979C117.106 40.6979 115.874 41.545 115.874 42.759C115.874 44.4532 117.774 45.0942 119.777 45.7888C121.908 46.5081 124.14 47.3037 124.14 49.6141C124.14 52.0008 122.061 53.8496 119.161 53.8496C116.514 53.8373 115.434 53.2725 114.408 52.9902Z" fill="black"/>
</svg>
