<svg width="52" height="54" viewBox="0 0 52 54" fill="none" xmlns="http://www.w3.org/2000/svg">
<path d="M13.8356 0.0512303C16.3813 0.0545423 18.8689 0.812237 20.9842 2.2286C23.0994 3.64497 24.7475 5.65646 25.7201 8.00899C26.6928 10.3615 26.9464 12.9495 26.449 15.4461C25.9515 17.9427 24.7253 20.2359 22.9253 22.036C21.1252 23.836 18.832 25.0622 16.3354 25.5597C13.8388 26.0571 11.2508 25.8035 8.89828 24.8309C6.54575 23.8582 4.53425 22.2101 3.11789 20.0949C1.70152 17.9796 0.943824 15.492 0.940512 12.9463C0.934427 11.2512 1.26382 9.57166 1.9097 8.00441C2.55558 6.43715 3.5052 5.01319 4.70384 3.81455C5.90247 2.61592 7.32644 1.6663 8.89369 1.02042C10.4609 0.374533 12.1405 0.0451446 13.8356 0.0512303V0.0512303ZM13.8356 21.6858C18.6318 21.6858 22.3616 17.7781 22.3616 12.9463C22.3616 8.08007 18.6318 4.17239 13.8356 4.17239C9.03947 4.17239 5.3097 8.08007 5.3097 12.9463C5.3097 17.7781 9.03947 21.6858 13.8356 21.6858V21.6858Z" fill="black"/>
<path d="M29.4957 19.1867C31.6714 20.8747 33.8837 21.6983 36.1347 21.6983C39.0985 21.6983 41.6813 20.0103 41.6813 17.0477C41.6813 14.2723 39.1696 12.6586 35.9422 12.6586C33.7665 12.6586 31.8535 13.2216 30.1278 14.0839L30.9964 0.0313721H44.7978V3.97044H34.6717L34.3327 9.1716C34.971 8.9466 36.1714 8.79591 37.2964 8.79591C42.2474 8.79591 46.1865 12.06 46.1865 16.9733C46.1865 22.5628 41.9104 25.7881 36.3587 25.8258C33.9266 25.8403 31.5424 25.1497 29.4946 23.8374L29.4957 19.1867Z" fill="black"/>
<path d="M27.9991 53.5029C28.5132 53.5115 29.0274 53.4878 29.5385 53.4317C30.0398 53.0016 30.1832 52.1424 30.2899 49.8872C30.3266 48.2044 30.3621 45.3411 30.3621 43.0848V37.9674C30.3621 29.5953 30.2188 29.341 28.4648 29.341H27.9279C27.6412 29.341 27.6412 29.0187 27.9279 29.0187C28.9305 29.0187 31.5437 29.0898 32.0805 29.0898C32.5818 29.0898 36.6266 29.0187 37.2346 29.0187C43.5702 29.0187 46.5778 31.0939 46.5778 34.8174C46.5778 38.003 42.9977 40.0793 38.1294 40.7239C41.9596 40.7595 43.4666 41.762 45.6109 46.6294C48.3318 52.8582 48.9398 53.5029 51.0161 53.5029H51.2673C51.5885 53.5029 51.5885 53.8252 51.2306 53.8252H49.9424C48.2962 53.8252 47.2214 53.9686 46.649 53.9686C45.8264 53.9686 45.2885 53.753 44.7517 53.1094C44.0359 52.2502 43.2123 50.5977 42.1354 47.7397C39.8435 41.7265 38.8054 41.042 35.6554 40.974H33.9778V44.5541C33.9778 53.3595 34.1568 53.5029 35.9107 53.5029H36.6266C36.9123 53.5029 36.9123 53.8252 36.6266 53.8252C35.624 53.8252 32.7607 53.753 32.2595 53.753C31.7226 53.753 28.2827 53.8252 27.9991 53.8252C27.7155 53.8252 27.7134 53.5029 27.9991 53.5029ZM33.9778 40.5805C34.657 40.545 35.5173 40.545 36.8034 40.545C39.5244 40.545 42.4954 38.8977 42.4954 34.853C42.4954 31.1305 40.6692 29.341 36.7312 29.341H35.1939C34.0846 29.341 33.9778 29.5555 33.9778 33.9948V40.5805Z" fill="black"/>
</svg>
