<svg width="33" height="27" viewBox="0 0 33 27" fill="none" xmlns="http://www.w3.org/2000/svg">
<path d="M20.27 6.72998H28.605L32.25 14.02V22.875H28.0825" stroke="#212427" stroke-linecap="round" stroke-linejoin="round"/>
<path d="M21.8325 22.875H10.895" stroke="#212427" stroke-linecap="round" stroke-linejoin="round"/>
<path d="M4.645 22.875H1V1H20.27V22.875" stroke="#212427" stroke-linecap="round" stroke-linejoin="round"/>
<path d="M24.4375 6.72998V14.02H32.25" stroke="#212427" stroke-linecap="round" stroke-linejoin="round"/>
<path d="M7.77002 26C9.49591 26 10.895 24.6009 10.895 22.875C10.895 21.1491 9.49591 19.75 7.77002 19.75C6.04413 19.75 4.64502 21.1491 4.64502 22.875C4.64502 24.6009 6.04413 26 7.77002 26Z" stroke="#212427" stroke-linecap="round" stroke-linejoin="round"/>
<path d="M24.9575 26C26.6834 26 28.0825 24.6009 28.0825 22.875C28.0825 21.1491 26.6834 19.75 24.9575 19.75C23.2316 19.75 21.8325 21.1491 21.8325 22.875C21.8325 24.6009 23.2316 26 24.9575 26Z" stroke="#212427" stroke-linecap="round" stroke-linejoin="round"/>
</svg>
