<svg width="35" height="35" viewBox="0 0 35 35" fill="none" xmlns="http://www.w3.org/2000/svg">
<path opacity="0.65" fill-rule="evenodd" clip-rule="evenodd" d="M17.5 9C16.675 9 16 8.325 16 7.5V1.5C16 0.675 16.675 0 17.5 0C18.325 0 19 0.675 19 1.5V7.5C19 8.325 18.325 9 17.5 9Z" fill="#444444"/>
<path opacity="0.75" fill-rule="evenodd" clip-rule="evenodd" d="M21.7498 10.1388C21.0353 9.72634 20.7883 8.80434 21.2008 8.08984L24.2008 2.89384C24.6133 2.17934 25.5353 1.93234 26.2498 2.34484C26.9643 2.75734 27.2113 3.67934 26.7988 4.39384L23.7988 9.58984C23.3863 10.3043 22.4643 10.5513 21.7498 10.1388Z" fill="#444444"/>
<path opacity="0.85" fill-rule="evenodd" clip-rule="evenodd" d="M24.8614 13.25C24.4489 12.5355 24.6959 11.6135 25.4104 11.201L30.6064 8.20104C31.3209 7.78854 32.2429 8.03554 32.6554 8.75004C33.0679 9.46454 32.8209 10.3865 32.1064 10.799L26.9104 13.799C26.1959 14.2115 25.2739 13.9645 24.8614 13.25Z" fill="#444444"/>
<path opacity="0.9" fill-rule="evenodd" clip-rule="evenodd" d="M26 17.5C26 16.675 26.675 16 27.5 16H33.5C34.325 16 35 16.675 35 17.5C35 18.325 34.325 19 33.5 19H27.5C26.675 19 26 18.325 26 17.5Z" fill="#444444"/>
<path opacity="0.2" fill-rule="evenodd" clip-rule="evenodd" d="M24.8614 21.75C25.2739 21.0355 26.1959 20.7885 26.9104 21.201L32.1064 24.201C32.8209 24.6135 33.0679 25.5355 32.6554 26.25C32.2429 26.9645 31.3209 27.2115 30.6064 26.799L25.4104 23.799C24.6959 23.3865 24.4489 22.4645 24.8614 21.75Z" fill="#444444"/>
<path opacity="0.25" fill-rule="evenodd" clip-rule="evenodd" d="M21.7498 24.8612C22.4643 24.4487 23.3863 24.6957 23.7988 25.4102L26.7988 30.6062C27.2113 31.3207 26.9643 32.2427 26.2498 32.6552C25.5353 33.0677 24.6133 32.8207 24.2008 32.1062L21.2008 26.9102C20.7883 26.1957 21.0353 25.2737 21.7498 24.8612Z" fill="#444444"/>
<path opacity="0.3" fill-rule="evenodd" clip-rule="evenodd" d="M17.5 26C18.325 26 19 26.675 19 27.5V33.5C19 34.325 18.325 35 17.5 35C16.675 35 16 34.325 16 33.5V27.5C16 26.675 16.675 26 17.5 26Z" fill="#444444"/>
<path opacity="0.35" fill-rule="evenodd" clip-rule="evenodd" d="M13.2498 24.8612C13.9643 25.2737 14.2113 26.1957 13.7988 26.9102L10.7988 32.1062C10.3863 32.8207 9.4643 33.0677 8.7498 32.6552C8.0353 32.2427 7.7883 31.3207 8.2008 30.6062L11.2008 25.4102C11.6133 24.6957 12.5353 24.4487 13.2498 24.8612Z" fill="#444444"/>
<path opacity="0.4" fill-rule="evenodd" clip-rule="evenodd" d="M10.1388 21.75C10.5513 22.4645 10.3043 23.3865 9.58984 23.799L4.39384 26.799C3.67934 27.2115 2.75734 26.9645 2.34484 26.25C1.93234 25.5355 2.17934 24.6135 2.89384 24.201L8.08984 21.201C8.80434 20.7885 9.72634 21.0355 10.1388 21.75Z" fill="#444444"/>
<path opacity="0.45" fill-rule="evenodd" clip-rule="evenodd" d="M9 17.5C9 18.325 8.325 19 7.5 19H1.5C0.675 19 0 18.325 0 17.5C0 16.675 0.675 16 1.5 16H7.5C8.325 16 9 16.675 9 17.5Z" fill="#444444"/>
<path opacity="0.5" fill-rule="evenodd" clip-rule="evenodd" d="M10.1388 13.25C9.72634 13.9645 8.80434 14.2115 8.08984 13.799L2.89384 10.799C2.17934 10.3865 1.93234 9.4645 2.34484 8.75C2.75734 8.0355 3.67934 7.7885 4.39384 8.201L9.58984 11.201C10.3043 11.6135 10.5513 12.5355 10.1388 13.25Z" fill="#444444"/>
<path opacity="0.55" fill-rule="evenodd" clip-rule="evenodd" d="M13.2498 10.1388C12.5353 10.5513 11.6133 10.3043 11.2008 9.58984L8.2008 4.39384C7.7883 3.67934 8.0353 2.75734 8.7498 2.34484C9.4643 1.93234 10.3863 2.17934 10.7988 2.89384L13.7988 8.08984C14.2113 8.80434 13.9643 9.72634 13.2498 10.1388Z" fill="#444444"/>
</svg>
