<svg width="28" height="28" viewBox="0 0 28 28" fill="none" xmlns="http://www.w3.org/2000/svg">
<mask id="mask0_422_2756" style="mask-type:alpha" maskUnits="userSpaceOnUse" x="2" y="2" width="24" height="24">
<path d="M14.0046 2.09375C7.44208 2.09375 2.12158 7.41425 2.12158 13.9768C2.12158 20.5393 7.44208 25.8598 14.0046 25.8598C20.5671 25.8598 25.8876 20.5393 25.8876 13.9768C25.8876 7.41425 20.5671 2.09375 14.0046 2.09375ZM15.1723 22.5312H12.0313V19.3438H15.1723V22.5312ZM15.1341 15.5375L14.9751 17.4215H12.5893L12.0643 13.5448C15.0036 13.4278 16.6813 12.476 16.6813 10.9242C16.6813 9.60275 15.6876 8.6975 14.0188 8.6975C12.5608 8.6975 11.3563 9.34475 10.2456 10.526L8.50633 8.67425C9.85183 7.1465 11.5858 6.1055 14.0893 6.1055C17.3331 6.1055 19.5081 7.91525 19.5081 10.835C19.5081 13.7743 17.4223 15.0957 15.1348 15.5367L15.1341 15.5375Z" fill="white"/>
</mask>
<g mask="url(#mask0_422_2756)">
<path d="M14.0046 2.09375C7.44208 2.09375 2.12158 7.41425 2.12158 13.9768C2.12158 20.5393 7.44208 25.8598 14.0046 25.8598C20.5671 25.8598 25.8876 20.5393 25.8876 13.9768C25.8876 7.41425 20.5671 2.09375 14.0046 2.09375ZM15.1723 22.5312H12.0313V19.3438H15.1723V22.5312ZM15.1341 15.5375L14.9751 17.4215H12.5893L12.0643 13.5448C15.0036 13.4278 16.6813 12.476 16.6813 10.9242C16.6813 9.60275 15.6876 8.6975 14.0188 8.6975C12.5608 8.6975 11.3563 9.34475 10.2456 10.526L8.50633 8.67425C9.85183 7.1465 11.5858 6.1055 14.0893 6.1055C17.3331 6.1055 19.5081 7.91525 19.5081 10.835C19.5081 13.7743 17.4223 15.0957 15.1348 15.5367L15.1341 15.5375Z" fill="#444444"/>
</g>
</svg>
