<svg width="44" height="28" viewBox="0 0 44 28" fill="none" xmlns="http://www.w3.org/2000/svg">
<path d="M30 0H14C6.26801 0 0 6.26801 0 14C0 21.732 6.26801 28 14 28H30C37.732 28 44 21.732 44 14C44 6.26801 37.732 0 30 0Z" fill="black"/>
<path d="M28.2518 7.93567H15.8091V20.5315H28.2518V7.93567Z" fill="white"/>
<path d="M19.0462 11.8328C19.1853 11.5536 19.3197 11.3045 19.4453 11.0803C20.3663 10.7567 21.1399 10.1232 21.1399 9.67776C21.1399 9.55354 21.05 9.41748 20.8396 9.41748C20.3943 9.41748 19.7737 9.8848 19.0608 11.1016C18.8259 11.163 18.5846 11.1956 18.342 11.1986C18.2718 11.1991 18.2015 11.1953 18.1317 11.1874C18.0388 10.7668 17.7162 10.4657 17.1289 10.4657C17.0962 10.4657 17.0605 10.4657 17.0278 10.4657C17.0168 10.4232 17.0113 10.3795 17.0115 10.3356C17.0115 9.87061 17.4293 9.57247 18.0551 9.57247C18.6015 9.57247 18.9211 9.8434 19.0526 9.93213L19.0988 9.86292C18.8036 9.62014 18.4355 9.4864 18.0551 9.48373C17.3504 9.48373 16.9215 9.8434 16.9215 10.3551C16.9219 10.3961 16.9264 10.4369 16.9349 10.4769C16.5123 10.5354 16.1179 10.7249 15.8059 11.0194V11.1413C16.1256 10.8372 16.5352 10.616 16.9589 10.5686C17.0792 10.9058 17.4889 11.2075 18.0575 11.2785C18.0661 11.3372 18.0706 11.3966 18.0709 11.456C18.0709 12.225 17.2621 12.842 16.8689 13.0076L16.9045 13.0768C17.2925 12.9331 18.1638 12.3078 18.1638 11.4613C18.1644 11.4029 18.1607 11.3446 18.1527 11.2868C18.2047 11.2868 18.2567 11.2921 18.3111 11.2921C18.5438 11.2902 18.7756 11.2624 19.0024 11.2093C18.9042 11.3808 18.8031 11.5689 18.702 11.7707C17.9914 13.1815 17.2294 13.7979 16.4861 13.7979C16.2508 13.8029 16.0176 13.7512 15.8059 13.6471V13.7494C16.0369 13.8544 16.2879 13.9064 16.5411 13.9014C17.3194 13.9079 18.2895 13.3371 19.0462 11.8328ZM20.8577 9.51213C21.0026 9.51213 21.0488 9.60086 21.0488 9.68664C21.0488 10.0877 20.3411 10.6461 19.5131 10.9614C20.1302 9.90728 20.5684 9.51213 20.8606 9.51213H20.8577ZM17.0594 10.5604C17.0839 10.5604 17.1114 10.5604 17.1359 10.5604C17.6414 10.5604 17.9447 10.8064 18.0405 11.1797C17.5274 11.1081 17.1774 10.8532 17.06 10.5604H17.0594ZM27.7917 15.7068C27.7099 15.7068 27.6497 15.6625 27.6497 15.5885C27.6497 15.4749 27.7262 15.3395 27.849 15.1046C28.0073 14.7976 28.1032 14.6231 28.1032 14.4628C28.1032 14.3025 27.9828 14.1475 27.7479 14.1475C27.5936 14.1502 27.4473 14.2172 27.3435 14.3327L27.3353 14.3244C27.4171 14.1641 27.9582 13.088 27.9582 13.088H27.61C27.61 13.088 26.921 14.4658 26.6341 15.0319C26.4617 15.3691 26.1917 15.6873 25.9866 15.6873C25.9552 15.6917 25.9234 15.6825 25.899 15.662C25.8746 15.6416 25.8597 15.6117 25.8581 15.5796C25.8688 15.5032 25.8949 15.4297 25.9346 15.3637C26.0468 15.1455 26.4646 14.3102 26.4646 14.3102H26.7299L26.7737 14.2274H26.5084L26.7159 13.818H26.3717L26.1643 14.2274H25.664C25.664 14.2274 25.7733 14.0061 25.8879 13.7819C26.1146 13.3424 26.3553 13.107 26.5307 13.107C26.6154 13.107 26.6475 13.1513 26.6475 13.201C26.6475 13.2507 26.6037 13.2756 26.6037 13.3531C26.6037 13.4306 26.6621 13.4885 26.7568 13.4885C26.8071 13.4879 26.855 13.4667 26.8895 13.4296C26.9239 13.3926 26.9421 13.343 26.9397 13.2921C26.9397 13.1596 26.7977 13.0318 26.5271 13.0318C25.989 13.0318 25.6337 13.5991 25.4449 13.9612C25.3654 14.1191 25.3111 14.2297 25.3111 14.2297H25.0388L24.995 14.3126H25.2655C25.2655 14.3126 25.0826 14.6917 24.9733 14.9213C24.7793 15.3253 24.4474 15.7015 24.2604 15.7015C24.2304 15.7066 24.1998 15.6976 24.1771 15.6771C24.1544 15.6567 24.1421 15.6269 24.1435 15.5962C24.1543 15.5154 24.1803 15.4375 24.2201 15.3667C24.3323 15.1484 24.791 14.2297 24.791 14.2297H23.8333C24.1447 13.6104 24.3592 13.2892 24.5602 13.1011C24.7664 13.1994 24.9908 13.2526 25.2188 13.2572C25.612 13.2572 25.8031 13.0886 25.8031 12.8922C25.8031 12.7402 25.6471 12.6296 25.3304 12.6296C24.9096 12.6296 24.5462 12.8562 24.4287 12.9254C24.1582 12.7816 23.9069 12.6296 23.6334 12.5243C23.6521 12.4634 23.6613 12.3999 23.6609 12.3362C23.6609 11.9736 23.5189 11.844 23.4803 11.4814C23.5785 11.4222 23.6989 11.3708 23.6989 11.2572C23.6989 11.2046 23.6661 11.1685 23.5978 11.1685C23.5019 11.1685 23.3845 11.2791 23.3845 11.437C23.2454 11.6145 22.9754 11.954 22.8328 12.1469C22.7744 12.2214 22.7236 12.2906 22.6768 12.3516C22.5015 12.3546 22.3272 12.3796 22.1579 12.4261V12.4149C22.1579 12.1741 21.9995 12.1078 21.8494 12.0996V12.0942C22.2456 12.0528 22.7347 11.8428 22.7347 11.4719C22.7409 11.4025 22.7166 11.3337 22.6681 11.2841C22.6197 11.2345 22.5521 11.2091 22.4834 11.2146C22.2619 11.2146 22.0743 11.3862 21.9697 11.5104L21.9616 11.5051C22.0843 11.259 22.6201 10.1995 22.6201 10.1995H22.2812C22.2812 10.1995 21.497 11.7511 21.3001 12.1386C21.1359 12.4622 20.8659 12.8082 20.6853 12.8082C20.579 12.8082 20.5515 12.7491 20.5515 12.6864C20.5515 12.5811 20.6333 12.4433 20.6684 12.3711C20.7449 12.222 21.2288 11.2649 21.2288 11.2649H20.8957C20.8957 11.2649 20.7835 11.4891 20.7753 11.4974L20.7589 11.492C20.7701 11.4282 20.7589 11.2069 20.4282 11.2069C19.9257 11.2069 19.2805 11.9594 19.2805 12.5592C19.2805 12.8248 19.4365 12.9733 19.6656 12.9733C19.9823 12.9733 20.1822 12.716 20.2529 12.6L20.2663 12.6083C20.2463 12.6534 20.2369 12.7026 20.2389 12.752C20.2389 12.8763 20.3318 12.9733 20.5012 12.9733C20.8209 12.9733 21.0365 12.6775 21.1189 12.5669L21.13 12.5722L20.9687 12.9124H21.2504C21.2504 12.9124 21.5893 12.2457 21.6518 12.1155C21.7775 12.1155 21.8757 12.193 21.8757 12.3149C21.8726 12.3893 21.8634 12.4633 21.8482 12.5361C21.3918 12.7727 21.1733 13.1833 21.1733 13.5761C21.1733 14.1321 21.5724 14.4042 21.9791 14.4042C22.7469 14.4042 23.045 13.7127 23.0964 13.6074C23.0853 13.6021 23.028 13.5743 23.0198 13.5713C22.9544 13.6932 22.6756 14.3096 21.9762 14.3096C21.5227 14.3096 21.2656 13.9831 21.2656 13.5796C21.2656 13.2064 21.4649 12.8603 21.8365 12.6473V12.7C21.8365 12.8686 21.9131 12.9709 22.0796 12.9709C22.2789 12.9709 22.4349 12.7964 22.7136 12.4344H22.7411C22.9272 12.4346 23.1126 12.4589 23.2927 12.5066C23.2816 12.5367 23.2682 12.5657 23.2571 12.5953C23.1805 12.7834 23.1011 12.897 22.9702 12.897C22.8854 12.897 22.8474 12.8556 22.8474 12.8029C22.8474 12.7367 22.9187 12.7307 22.9187 12.6314C22.9187 12.5787 22.8889 12.532 22.8019 12.532C22.7148 12.532 22.6517 12.6207 22.6517 12.7254C22.6517 12.8638 22.7826 12.9745 23.007 12.9745C23.2565 12.9797 23.4857 12.8355 23.5913 12.6065C23.8999 12.7307 24.143 12.8916 24.3317 12.9827C24.0121 13.2194 23.7801 13.5938 23.4517 14.222H22.9491L22.9 14.3078H23.4055C22.7797 15.4974 22.28 16.4043 21.2551 16.4043C20.6812 16.4043 20.2821 16.0334 20.1839 15.5856C20.3074 15.5031 20.4352 15.4275 20.5667 15.359C20.5614 15.3424 20.5392 15.2703 20.5369 15.2567C20.4989 15.2649 20.3265 15.3034 20.16 15.3288C20.1874 14.4545 21.0564 14.3303 21.2259 14.3055C21.2259 14.3001 21.2177 14.2463 21.2177 14.2392C20.787 14.2629 20.0717 14.5586 20.0717 15.3424C20.039 15.3424 20.0063 15.3478 19.9759 15.3478C19.069 15.3478 18.539 14.8444 17.916 14.8444C17.1809 14.8444 16.7877 15.3176 16.7877 15.8015C16.7877 16.4126 17.3066 16.6066 17.4135 16.645C17.4188 16.6338 17.4433 16.5811 17.4491 16.5675C17.3399 16.5119 16.8806 16.3546 16.8806 15.7932C16.8806 15.2608 17.3697 14.936 17.9108 14.936C18.4519 14.936 18.9246 15.3501 19.7579 15.4093L19.7632 15.4341C18.6973 15.7382 18.023 16.4628 17.531 17.1573C17.493 17.21 17.4573 17.2626 17.4188 17.3153H16.9454L16.8963 17.404H17.3556C16.8718 18.0843 16.4078 18.7054 15.7954 18.942V19.0473C16.4703 18.8107 16.9402 18.1263 17.4649 17.4046H18.4513C18.3807 17.6441 18.3448 17.8928 18.345 18.1428C18.345 18.8095 18.6699 19.1165 19.159 19.1165C19.465 19.1185 19.7576 18.9896 19.9648 18.7616L19.9064 18.6977C19.8514 18.7533 19.6247 18.9746 19.3436 18.9746C18.993 18.9746 18.7073 18.7231 18.7073 18.1612C18.7075 17.9058 18.7434 17.6517 18.8136 17.4064H19.5458C19.464 17.5726 19.3764 17.7435 19.308 17.8766C19.2442 17.9821 19.2067 18.1017 19.1987 18.2251C19.1987 18.3966 19.3378 18.5208 19.5978 18.5208C20.1769 18.5208 20.5375 17.7684 20.6415 17.5276C20.7109 17.5587 20.7822 17.5856 20.8548 17.6081C20.794 17.7291 20.7605 17.8622 20.7566 17.9979C20.7566 18.302 20.9535 18.5179 21.303 18.5179C21.7705 18.5179 21.9995 18.2221 22.0901 18.1221L22.1012 18.1304L21.954 18.4569H22.2461C22.2461 18.4569 22.6371 17.6879 22.6862 17.5856C22.872 17.2147 23.1285 16.9349 23.3582 16.9349C23.3933 16.9311 23.4283 16.9423 23.4548 16.966C23.4812 16.9896 23.4966 17.0234 23.4972 17.0591C23.4972 17.1727 23.4096 17.3277 23.2512 17.64C23.1203 17.9027 23.0175 18.1186 23.0175 18.2653C23.0175 18.4232 23.1215 18.5167 23.2992 18.5167C23.5832 18.5167 23.7146 18.2801 23.8046 18.1653L23.821 18.1706C23.7964 18.2676 23.8373 18.5161 24.1354 18.5161C24.4766 18.5161 24.6216 18.2588 24.7039 18.1564L24.7174 18.1677C24.6876 18.3528 24.8103 18.5161 25.068 18.5161C25.3415 18.5161 25.5162 18.2978 25.6033 18.2038C25.6331 18.2813 25.7424 18.5161 26.1117 18.5161C26.6469 18.5161 26.9479 18.0097 27.0431 17.8062L26.9672 17.7707C26.8304 18.0281 26.5494 18.396 26.2075 18.396C25.9644 18.396 25.8493 18.2381 25.8493 18.0281C25.8493 17.876 25.9369 17.7157 25.9802 17.6382C26.623 17.6436 27.0975 17.2898 27.0975 17.013C27.0975 16.8775 26.9689 16.803 26.8053 16.803C26.2122 16.803 25.5624 17.4501 25.5624 17.9979C25.5625 18.0389 25.567 18.0797 25.5758 18.1198C25.5022 18.2026 25.3105 18.399 25.1194 18.399C25.0824 18.4029 25.0456 18.3901 25.0188 18.364C24.992 18.3379 24.9779 18.3011 24.9804 18.2635C24.9804 18.1665 25.0458 18.0393 25.1171 17.8956C25.2673 17.5939 25.636 16.8639 25.636 16.8639H25.2918L24.7945 17.8542C24.6385 18.1641 24.4094 18.396 24.2341 18.396C24.1219 18.396 24.0839 18.3268 24.0839 18.2659C24.0839 18.1553 24.1552 18.0393 24.237 17.8814L24.7513 16.8657H24.4071L23.9314 17.8086C23.762 18.1458 23.5323 18.4002 23.3932 18.4002C23.3628 18.403 23.3326 18.3926 23.3102 18.3714C23.2879 18.3503 23.2756 18.3205 23.2764 18.2895C23.2764 18.1789 23.35 18.0713 23.4867 17.8027C23.6726 17.4318 23.7737 17.2413 23.7737 17.078C23.7737 16.9148 23.6422 16.8065 23.4429 16.8065C23.2092 16.8065 23.0029 16.984 22.8965 17.1189H22.8767L22.9889 16.8645H22.6967L22.2759 17.7027C22.0738 18.1067 21.7296 18.3996 21.3994 18.3996C21.1452 18.3996 21.0359 18.2363 21.0359 18.0316C21.0359 17.8766 21.1236 17.7216 21.1668 17.6418C21.8499 17.6418 22.2841 17.2738 22.2841 17.0165C22.2841 16.8893 22.1673 16.8065 21.9919 16.8065C21.563 16.8065 21.1066 17.1467 20.8852 17.5365C20.8068 17.5124 20.7309 17.4809 20.6584 17.4424C20.6936 17.3373 20.7112 17.2269 20.7104 17.1159C20.7104 16.9917 20.6695 16.8036 20.5492 16.8036C20.451 16.8036 20.3931 16.9278 20.3931 17.055C20.3834 17.211 20.4438 17.3631 20.5573 17.4691C20.4644 17.7648 20.0653 18.4013 19.6995 18.4013C19.5604 18.4013 19.5084 18.3268 19.5084 18.2298C19.5084 18.1576 19.5411 18.0778 19.6013 17.9612C19.7054 17.7619 20.153 16.8686 20.153 16.8686H19.8117C19.8117 16.8686 19.7077 17.0763 19.5821 17.3247H18.8417C19.0631 16.6415 19.5359 16.0635 20.115 15.6542C20.2459 16.1771 20.7297 16.5309 21.3579 16.5309C22.6476 16.5309 23.3249 15.2253 23.7894 14.3208H24.4071C24.3142 14.5089 24.0875 14.9544 23.9753 15.1809C23.8794 15.3744 23.8385 15.488 23.8385 15.595C23.8385 15.7222 23.9425 15.8441 24.1225 15.8441C24.4258 15.8441 24.6251 15.5755 24.7098 15.4761L24.7209 15.4844C24.4638 15.9405 24.2429 16.4356 23.7181 16.4356C23.6498 16.4355 23.5818 16.4261 23.5159 16.4078L23.4803 16.4906C23.5688 16.519 23.661 16.534 23.7538 16.535C24.2511 16.535 24.6362 16.2392 25.0791 15.3874C25.3029 14.9585 25.6226 14.3226 25.6226 14.3226H26.1228C26.1228 14.3226 25.8359 14.8952 25.6909 15.1857C25.5951 15.3791 25.5542 15.4956 25.5542 15.5921C25.5542 15.7275 25.65 15.8494 25.8709 15.8494C26.1385 15.8494 26.3764 15.5702 26.4693 15.44L26.4804 15.4483C26.4477 15.5175 26.3051 15.7914 26.3051 15.7914H26.6084C26.6084 15.7914 26.9771 15.0615 27.0864 14.8449C27.2558 14.5078 27.458 14.2865 27.6468 14.2865C27.6876 14.281 27.7288 14.2942 27.759 14.3226C27.7892 14.351 27.8053 14.3916 27.8028 14.4332C27.8028 14.5515 27.7292 14.6823 27.579 14.978C27.4668 15.1993 27.3575 15.3679 27.3575 15.5643C27.3575 15.7607 27.5135 15.8518 27.6772 15.8518C28.0214 15.8518 28.1797 15.556 28.251 15.4424V15.2791C28.175 15.4087 27.9647 15.7045 27.7923 15.7045L27.7917 15.7068ZM25.4093 12.7225C25.6167 12.7225 25.7155 12.7946 25.7155 12.8828C25.7155 13.0514 25.5431 13.1596 25.2562 13.1596C25.0453 13.155 24.8375 13.1077 24.6449 13.0206C24.8991 12.8201 25.1557 12.7201 25.4099 12.7201L25.4093 12.7225ZM19.7918 12.855C19.7359 12.858 19.6814 12.8362 19.6426 12.7953C19.6038 12.7544 19.5845 12.6985 19.5896 12.642C19.5896 12.2191 20.1442 11.3146 20.5106 11.3146C20.6415 11.3146 20.6912 11.4199 20.6912 11.5246C20.6941 11.9292 20.115 12.8532 19.7924 12.8532L19.7918 12.855ZM21.7079 12.0286C21.847 11.763 22.0849 11.4092 22.342 11.4092C22.3784 11.4066 22.4143 11.42 22.4404 11.4459C22.4665 11.4718 22.4805 11.5077 22.4787 11.5447C22.4781 11.8215 22.1719 11.9955 21.7079 12.0286ZM22.2485 12.784C22.183 12.784 22.1392 12.7426 22.1392 12.6598C22.141 12.6134 22.1455 12.5672 22.1526 12.5213C22.3023 12.4775 22.4564 12.4505 22.6119 12.4409C22.4454 12.6598 22.3414 12.784 22.2485 12.784ZM23.3389 12.4214C23.1613 12.3749 22.9788 12.3506 22.7954 12.3492C22.8334 12.2995 22.872 12.2469 22.9158 12.1913C23.1098 11.9369 23.26 11.7375 23.402 11.5577C23.4243 11.6847 23.4362 11.8133 23.4376 11.9422C23.4313 12.1056 23.3979 12.2668 23.3389 12.419V12.4214ZM26.7568 16.8775C26.869 16.8775 26.9041 16.9438 26.9041 17.0076C26.9041 17.2537 26.5324 17.54 26.0351 17.54C26.235 17.2064 26.5517 16.8775 26.7568 16.8775ZM21.951 16.8775C22.0492 16.8775 22.096 16.9302 22.096 17.0076C22.096 17.2591 21.7132 17.54 21.227 17.54C21.459 17.1615 21.7594 16.8805 21.951 16.8805V16.8775ZM18.4782 17.3087H17.5432C17.5707 17.2703 17.6017 17.2313 17.628 17.1904C18.2708 16.2611 18.9831 15.7246 20.0823 15.401C20.0817 15.4027 20.0817 15.4046 20.0823 15.4063C20.0823 15.4176 20.0823 15.4282 20.0823 15.4395C19.4728 15.7766 18.7675 16.435 18.4782 17.3117V17.3087ZM24.5847 13.8186C24.5864 13.8629 24.6063 13.9046 24.6396 13.9334C24.6728 13.9623 24.7165 13.9758 24.76 13.9706C24.9024 13.9767 25.023 13.8656 25.0306 13.7216C25.0306 13.6524 24.9786 13.5696 24.8553 13.5696C24.713 13.5661 24.5935 13.6772 24.5847 13.821V13.8186ZM16.0928 17.9813L16.1367 18.0535C16.4481 17.8488 16.7596 17.514 16.7596 17.0189C16.7596 16.6231 16.4838 16.283 15.9415 16.283C15.8977 16.283 15.8515 16.283 15.8106 16.2883V16.3824C15.856 16.3778 15.9017 16.376 15.9473 16.3771C16.4365 16.3771 16.6714 16.6728 16.6714 17.0378C16.6696 17.4667 16.3903 17.779 16.0928 17.9813Z" fill="black"/>
</svg>
