<svg width="24" height="24" viewBox="0 0 24 24" fill="none" xmlns="http://www.w3.org/2000/svg">
<path fill-rule="evenodd" clip-rule="evenodd" d="M21.936 23.9565L16.935 18.345C16.035 19.095 15.0285 19.6815 13.92 20.109C12.807 20.5395 11.607 20.7495 10.326 20.7495C8.8935 20.7495 7.551 20.4795 6.3 19.935C5.049 19.3875 3.9585 18.6435 3.0285 17.7C2.0985 16.7595 1.362 15.663 0.8145 14.409C0.2715 13.152 0 11.811 0 10.3755C0 8.9415 0.273 7.5975 0.8175 6.3435C1.3635 5.091 2.1 3.9945 3.0315 3.051C3.9615 2.1105 5.052 1.3665 6.303 0.819C7.554 0.2745 8.8965 0 10.329 0C11.7615 0 13.101 0.273 14.352 0.819C15.603 1.365 16.698 2.109 17.6385 3.051C18.582 3.993 19.323 5.091 19.8675 6.3435C20.412 7.596 20.685 8.937 20.685 10.374C20.685 11.637 20.4825 12.828 20.076 13.941C19.671 15.0525 19.092 16.0575 18.345 16.959L23.4135 22.6395L21.936 23.9565ZM10.3275 18.7605C11.4825 18.7605 12.573 18.543 13.599 18.1035C14.6295 17.667 15.5175 17.07 16.2765 16.311C17.0355 15.5505 17.6325 14.664 18.072 13.6485C18.5085 12.633 18.729 11.5485 18.729 10.3935C18.729 9.2385 18.51 8.1555 18.072 7.1385C17.6325 6.123 17.0355 5.2305 16.2765 4.461C15.5175 3.69 14.6265 3.087 13.599 2.649C12.573 2.208 11.481 1.989 10.3275 1.989C9.174 1.989 8.088 2.208 7.0725 2.646C6.0555 3.084 5.1675 3.6885 4.41 4.458C3.6495 5.2275 3.051 6.1215 2.613 7.137C2.175 8.1525 1.956 9.237 1.956 10.3905C1.956 11.544 2.175 12.63 2.613 13.644C3.051 14.664 3.6495 15.5505 4.41 16.308C5.1675 17.0655 6.0555 17.664 7.071 18.1005C8.0865 18.543 9.1725 18.7605 10.3275 18.7605Z" fill="#212427"/>
</svg>
