<svg width="110" height="28" viewBox="0 0 110 28" fill="none" xmlns="http://www.w3.org/2000/svg">
<path d="M28.368 18H36.396V16.11H30.438V12.6H35.64V10.71H30.438V7.29H36.306V5.4H28.368V18ZM38.5985 18H46.0865V16.074H40.6865V5.4H38.5985V18ZM48.1108 18H50.1988V5.4H48.1108V18ZM58.3221 18.18C60.1041 18.18 61.5621 17.496 62.6241 16.65V10.998H57.9981V12.834H60.6441V15.606C60.0861 16.002 59.2941 16.272 58.4121 16.272C56.2701 16.272 54.7221 14.58 54.7221 11.736V11.628C54.7221 9.018 56.2521 7.164 58.3041 7.164C59.5821 7.164 60.3741 7.65 61.0941 8.298L62.3361 6.642C61.2201 5.706 60.0501 5.22 58.3401 5.22C54.9561 5.22 52.5621 7.938 52.5621 11.646V11.79C52.5621 15.66 54.9021 18.18 58.3221 18.18ZM65.1967 18H67.2847V5.4H65.1967V18ZM70.116 18H74.742C77.424 18 79.224 16.776 79.224 14.562V14.49C79.224 12.798 78.216 11.97 76.83 11.484C77.784 11.016 78.684 10.206 78.684 8.658V8.604C78.684 7.74 78.396 7.038 77.838 6.48C77.136 5.778 75.984 5.4 74.616 5.4H70.116V18ZM76.596 8.982C76.596 10.152 75.714 10.764 74.346 10.764H72.168V7.272H74.472C75.822 7.272 76.596 7.884 76.596 8.946V8.982ZM77.136 14.31V14.346C77.136 15.498 76.236 16.128 74.796 16.128H72.168V12.528H74.706C76.29 12.528 77.136 13.212 77.136 14.31ZM81.3133 18H88.8013V16.074H83.4013V5.4H81.3133V18ZM90.7176 18H98.7456V16.11H92.7876V12.6H97.9896V10.71H92.7876V7.29H98.6556V5.4H90.7176V18Z" fill="black"/>
<path fill-rule="evenodd" clip-rule="evenodd" d="M14.2778 10C18.7515 11.1756 22 14.6718 22 18.794C22 23.8781 17.0831 28 10.9998 28C4.93163 28 0 23.8781 0 18.794C0 17.8628 0.177169 16.9468 0.487059 16.0917C0.502084 20.1527 4.42955 23.4353 9.28731 23.4353C14.1451 23.4353 18.0872 20.1375 18.0872 16.0765C18.0872 13.5574 16.5813 11.3283 14.2778 10ZM11.0002 0C17.0684 0 22 4.1222 22 9.20601C22 10.1372 21.8228 11.0535 21.5126 11.9083C21.4979 7.84727 17.5705 4.56465 12.7127 4.56465C7.85493 4.56465 3.91275 7.86248 3.91275 11.9235C3.91275 14.4426 5.41869 16.6717 7.72221 18C3.24821 16.8244 0 13.3282 0 9.20601C0 4.1222 4.91692 0 11.0002 0Z" fill="#0A0B09"/>
</svg>
