<svg width="28" height="28" viewBox="0 0 28 28" fill="none" xmlns="http://www.w3.org/2000/svg">
<path fill-rule="evenodd" clip-rule="evenodd" d="M14.2252 3.55628C15.102 3.55628 18.1162 3.79103 19.5412 6.97853C20.01 8.02853 19.8877 9.92678 19.794 11.4553C19.7797 11.699 19.7655 11.933 19.752 12.1588L19.7475 12.257L19.8127 12.3275C19.8412 12.3553 20.0797 12.6088 20.6235 12.632H20.6422C20.9985 12.6178 21.4012 12.5053 21.8422 12.3035C21.9075 12.2758 21.9922 12.2563 22.0815 12.2563C22.1842 12.2563 22.2975 12.275 22.386 12.3125L22.4002 12.317C22.6297 12.3965 22.794 12.5518 22.794 12.6875C22.794 12.767 22.7377 13.0438 21.9217 13.367C21.8422 13.4 21.7387 13.433 21.6172 13.4698C21.0877 13.6385 20.2905 13.892 20.019 14.5243C19.869 14.8805 19.9065 15.3028 20.1412 15.776C20.2395 16.001 21.7492 19.4045 25.1475 19.9618C25.1475 19.976 25.143 19.9948 25.1332 20.018C25.077 20.1538 24.711 20.6225 22.4287 20.9743C22.0725 21.0305 21.9832 21.4288 21.885 21.893C21.8475 22.0573 21.81 22.226 21.7582 22.3993C21.744 22.451 21.7395 22.4555 21.6832 22.4555C21.6742 22.4555 21.6645 22.4555 21.6547 22.4555C21.552 22.4555 21.402 22.4368 21.2235 22.3993C20.9002 22.3385 20.4592 22.2583 19.8922 22.2583C19.578 22.2583 19.2502 22.2868 18.9262 22.3378C18.228 22.4548 17.6602 22.8538 17.0602 23.2798C16.254 23.8513 15.4192 24.4378 14.1495 24.4378C14.0932 24.4378 14.0415 24.4378 13.9852 24.4333H13.9575C13.9245 24.4378 13.8967 24.4378 13.8637 24.4378C12.5932 24.4378 11.7592 23.8468 10.953 23.2798C10.3432 22.8575 9.77623 22.4593 9.07798 22.3423C8.74948 22.286 8.42623 22.2628 8.11273 22.2628C7.54573 22.2628 7.10473 22.3475 6.78148 22.4128C6.60373 22.4458 6.44847 22.478 6.35022 22.478C6.26622 22.478 6.26623 22.4735 6.24673 22.4128C6.19498 22.2395 6.15748 22.0663 6.11998 21.902C6.01648 21.4378 5.93248 21.035 5.57623 20.9788C3.29773 20.627 2.93248 20.1583 2.87173 20.0225C2.86273 20.0038 2.85748 19.985 2.85748 19.9663C6.25573 19.4083 7.76998 16.001 7.86373 15.7805C8.09848 15.3073 8.14048 14.885 7.98523 14.5288C7.71823 13.8958 6.91648 13.643 6.38698 13.4743C6.26548 13.4368 6.16198 13.4038 6.08248 13.3715C5.39323 13.0993 5.18248 12.8278 5.21548 12.659C5.25298 12.467 5.58073 12.275 5.87173 12.275C5.93773 12.275 5.99322 12.284 6.03597 12.3028C6.50472 12.5233 6.93598 12.6358 7.31098 12.6358C7.90123 12.6358 8.16448 12.359 8.19223 12.3313L8.25823 12.2608L8.25373 12.167C8.23948 11.942 8.22598 11.7073 8.21173 11.4688C8.11348 9.94103 7.99648 8.04203 8.46523 6.99203C9.88048 3.81878 12.8812 3.56978 13.767 3.56978C13.7902 3.56978 14.175 3.56528 14.175 3.56528C14.1892 3.55553 14.208 3.55553 14.2267 3.55553L14.2252 3.55628ZM14.2252 3.07328C14.2065 3.07328 14.1832 3.07328 14.169 3.07328C14.169 3.07328 13.794 3.07778 13.7662 3.07778C12.8055 3.07778 9.55723 3.34478 8.02423 6.78128C7.50823 7.93928 7.63047 9.90278 7.73322 11.483C7.74297 11.6705 7.75647 11.8625 7.76622 12.05C7.68672 12.092 7.54123 12.1483 7.31623 12.1483C7.01173 12.1483 6.65023 12.0545 6.24748 11.8625C6.13948 11.8108 6.01798 11.7875 5.87698 11.7875C5.40373 11.7875 4.83598 12.1018 4.74748 12.5653C4.68223 12.8983 4.83148 13.3903 5.90998 13.8118C6.00823 13.8493 6.12523 13.8868 6.24748 13.9243C6.69298 14.0645 7.36272 14.2805 7.54572 14.7073C7.63947 14.9323 7.60198 15.218 7.43323 15.56C7.42873 15.569 7.42348 15.5743 7.42348 15.5833C7.36273 15.719 5.94223 18.9673 2.78248 19.4833C2.53873 19.5253 2.36548 19.7413 2.37973 19.985C2.38423 20.06 2.40298 20.1305 2.43148 20.201C2.67073 20.7545 3.66898 21.1618 5.49223 21.443C5.55298 21.5278 5.61373 21.818 5.65648 21.9913C5.69398 22.1645 5.73147 22.3475 5.78772 22.535C5.84397 22.7225 5.98497 22.9475 6.35022 22.9475C6.50022 22.9475 6.67348 22.9145 6.87523 22.8725C7.17973 22.8118 7.59223 22.7315 8.11273 22.7315C8.40298 22.7315 8.69848 22.7548 9.00373 22.8065C9.58948 22.9048 10.0912 23.2565 10.668 23.6645C11.4975 24.2503 12.435 24.9118 13.86 24.9118C13.8975 24.9118 13.9395 24.9118 13.977 24.9073C14.0235 24.9073 14.085 24.9118 14.1457 24.9118C15.5707 24.9118 16.5082 24.251 17.3377 23.6645C17.919 23.2565 18.4162 22.9003 19.002 22.8065C19.302 22.7548 19.602 22.7315 19.8877 22.7315C20.385 22.7315 20.7787 22.7923 21.1252 22.8628C21.3457 22.9048 21.519 22.928 21.6502 22.928H21.6787C21.951 22.928 22.143 22.7825 22.218 22.5245C22.2742 22.337 22.3117 22.1638 22.3492 21.9853C22.3867 21.8068 22.452 21.521 22.5135 21.437C24.3367 21.1558 25.335 20.7478 25.5742 20.195C25.6027 20.1245 25.6215 20.0495 25.626 19.979C25.6402 19.7353 25.467 19.5148 25.2225 19.4773C22.0627 18.9568 20.6377 15.713 20.5815 15.5773C20.577 15.5683 20.577 15.563 20.5725 15.554C20.4037 15.212 20.3662 14.9263 20.46 14.7013C20.643 14.27 21.3127 14.0593 21.7582 13.9183C21.885 13.8808 22.002 13.8433 22.0957 13.8058C22.8832 13.4968 23.277 13.112 23.2725 12.6718C23.268 12.3245 22.9957 12.0155 22.5645 11.861C22.419 11.8003 22.2457 11.7673 22.0815 11.7673C21.9645 11.7673 21.7957 11.7815 21.636 11.8565C21.261 12.0298 20.9235 12.1288 20.6332 12.1423C20.4412 12.1333 20.3145 12.086 20.244 12.044C20.253 11.8843 20.2627 11.7208 20.2725 11.5475L20.277 11.4815C20.3752 9.90203 20.502 7.93778 19.9867 6.77978C18.4447 3.33878 15.1867 3.07178 14.226 3.07178L14.2252 3.07328Z" fill="#6E6E6E"/>
</svg>
