<svg width="28" height="28" viewBox="0 0 28 28" fill="none" xmlns="http://www.w3.org/2000/svg">
<path fill-rule="evenodd" clip-rule="evenodd" d="M14 3.40625C15.425 3.40625 16.8031 3.6875 18.1109 4.24062C19.3719 4.775 20.5063 5.54375 21.4813 6.51875C22.4563 7.49375 23.225 8.62813 23.7594 9.88906C24.3125 11.1969 24.5938 12.575 24.5938 14C24.5938 15.425 24.3125 16.8031 23.7594 18.1109C23.225 19.3719 22.4563 20.5063 21.4813 21.4813C20.5063 22.4563 19.3719 23.225 18.1109 23.7594C16.8031 24.3125 15.425 24.5938 14 24.5938C12.575 24.5938 11.1969 24.3125 9.88906 23.7594C8.62813 23.225 7.49375 22.4563 6.51875 21.4813C5.54375 20.5063 4.775 19.3719 4.24062 18.1109C3.6875 16.8031 3.40625 15.425 3.40625 14C3.40625 12.575 3.6875 11.1969 4.24062 9.88906C4.775 8.62813 5.54375 7.49375 6.51875 6.51875C7.49375 5.54375 8.62813 4.775 9.88906 4.24062C11.1969 3.6875 12.575 3.40625 14 3.40625ZM14 2C7.4 2 2 7.4 2 14C2 20.6 7.4 26 14 26C20.6 26 26 20.6 26 14C26 7.4 20.6 2 14 2ZM14.0047 9.53281C14.8305 9.53281 15.5 8.86334 15.5 8.0375C15.5 7.21166 14.8305 6.54219 14.0047 6.54219C13.1788 6.54219 12.5094 7.21166 12.5094 8.0375C12.5094 8.86334 13.1788 9.53281 14.0047 9.53281ZM12.5 12.4578H15.5V21.4672H12.5V12.4578Z" fill="#444444"/>
</svg>
