<svg width="44" height="28" viewBox="0 0 44 28" fill="none" xmlns="http://www.w3.org/2000/svg">
<path d="M2.34667 0H41.6533C42.9499 0 44 1.06412 44 2.37792V25.6221C44 26.9359 42.9499 28 41.6533 28H2.34667C1.05013 28 0 26.9359 0 25.6221V2.37792C0 1.06412 1.05013 0 2.34667 0Z" fill="#0E4595"/>
<path d="M16.2104 20.0667L18.1709 8.40002H21.3052L19.3448 20.0667H16.2104Z" fill="white"/>
<path d="M30.5683 8.42589C29.9546 8.18563 28.9994 7.93335 27.801 7.93335C24.7499 7.93335 22.5962 9.53111 22.5789 11.8136C22.5615 13.5015 24.1131 14.4445 25.2883 15.0091C26.4925 15.5858 26.8978 15.9522 26.892 16.4687C26.8862 17.2556 25.931 17.616 25.0452 17.616C23.8062 17.616 23.152 17.4358 22.1389 16.9973L21.7394 16.8111L21.3052 19.442C22.0289 19.7724 23.3604 20.0547 24.7441 20.0667C27.992 20.0667 30.0994 18.493 30.1225 16.0483C30.1341 14.7088 29.312 13.6937 27.5289 12.8528C26.4462 12.3062 25.7862 11.9458 25.792 11.3932C25.792 10.9066 26.3536 10.384 27.5636 10.384C28.571 10.366 29.3062 10.5943 29.8736 10.8345L30.1515 10.9727L30.5683 8.42589Z" fill="white"/>
<path d="M38.7137 8.40002H36.3222C35.5792 8.40002 35.0278 8.60878 34.7027 9.36628L30.1055 20.0667H33.356C33.356 20.0667 33.8901 18.6292 34.0062 18.3131C34.3602 18.3131 37.5237 18.3191 37.9707 18.3191C38.0636 18.7306 38.348 20.0667 38.348 20.0667H41.2213L38.7137 8.40002ZM34.9175 15.9392C35.1729 15.2652 36.1539 12.6766 36.1539 12.6766C36.1364 12.7064 36.4093 12.0026 36.566 11.5612L36.7749 12.5692C36.7749 12.5692 37.367 15.3547 37.4947 15.9392H34.9175Z" fill="white"/>
<path d="M13.7956 8.40599L10.7141 16.3727L10.3835 14.7555C9.81087 12.8877 8.02219 10.8646 6.021 9.85612L8.84274 20.0667L12.1781 20.0607L17.1368 8.40002H13.7956" fill="white"/>
<path d="M7.73631 7.93335H2.81883L2.77881 8.18487C6.60415 9.17867 9.13722 11.5834 10.1893 14.4667L9.12007 8.94556C8.93709 8.18487 8.3996 7.95789 7.73631 7.93335Z" fill="#F2AE14"/>
</svg>
